<?xml version="1.0" encoding="utf-8"?>
<!-- Generator: Adobe Illustrator 24.1.2, SVG Export Plug-In . SVG Version: 6.00 Build 0)  -->
<svg version="1.1" id="Слой_1" xmlns="http://www.w3.org/2000/svg" xmlns:xlink="http://www.w3.org/1999/xlink" x="0px" y="0px"
	 viewBox="0 0 100 100" style="enable-background:new 0 0 100 100;" xml:space="preserve">
<style type="text/css">
	.st0{fill-rule:evenodd;clip-rule:evenodd;fill:#FF0C69;}
	.st1{fill-rule:evenodd;clip-rule:evenodd;fill:#086BF0;}
	.st2{fill-rule:evenodd;clip-rule:evenodd;fill:#FFFFFF;}
</style>
<path id="Фигура_1_копия_3" class="st0" d="M32.8,49.8h34.2v-4.7C67.1,39.9,3.3,1,3.3,1C5.4,23.3,32.8,49.8,32.8,49.8z
	 M32.8,49.8h34.2v5.2C67.1,60.1,3.3,99,3.3,99C5.4,76.2,32.8,49.8,32.8,49.8z"/>
<path id="Фигура_1_копия_2" class="st1" d="M42.7,49.8h53.9v-4.7C96.6,39.9,13.1,1,13.1,1C15.2,23.3,42.7,49.8,42.7,49.8
	z M42.7,49.8h53.9v5.2c0,5.2-83.5,44.1-83.5,44.1C15.2,76.2,42.7,49.8,42.7,49.8z"/>
<path id="Фигура_1_копия" class="st2" d="M42.7,49.8h34.2v-4.7C76.9,39.9,13.1,1,13.1,1C15.2,23.3,42.7,49.8,42.7,49.8z
	 M42.7,49.8h34.2v5.2c0,5.2-63.8,44.1-63.8,44.1C15.2,76.2,42.7,49.8,42.7,49.8z"/>
</svg>
