<?xml version="1.0" encoding="utf-8"?>
<!-- Generator: Adobe Illustrator 24.1.2, SVG Export Plug-In . SVG Version: 6.00 Build 0)  -->
<svg version="1.1" id="Слой_1" xmlns="http://www.w3.org/2000/svg" xmlns:xlink="http://www.w3.org/1999/xlink" x="0px" y="0px"
	 viewBox="0 0 100 100" style="enable-background:new 0 0 100 100;" xml:space="preserve">
<style type="text/css">
	.st0{fill-rule:evenodd;clip-rule:evenodd;fill:#FF0C69;}
	.st1{fill-rule:evenodd;clip-rule:evenodd;fill:#086BF0;}
	.st2{fill-rule:evenodd;clip-rule:evenodd;fill:#FFFFFF;}
</style>
<path id="Фигура_1_копия_3" class="st0" d="M96.6,1c0,0-63.8,38.9-63.8,44.1v4.7h34.2C67.1,49.8,94.5,23.3,96.6,1z
	 M96.6,99c0,0-63.8-38.9-63.8-44.1v-5.2h34.2C67.1,49.8,94.5,76.2,96.6,99z"/>
<path id="Фигура_1_копия_2" class="st1" d="M86.8,1c0,0-83.5,38.9-83.5,44.1v4.7h53.9C57.2,49.8,84.7,23.3,86.8,1z
	 M86.8,99c0,0-83.5-38.9-83.5-44.1v-5.2h53.9C57.2,49.8,84.7,76.2,86.8,99z"/>
<path id="Фигура_1_копия" class="st2" d="M86.8,1C86.8,1,23,39.9,23,45.1v4.7h34.2C57.2,49.8,84.7,23.3,86.8,1z M86.8,99
	c0,0-63.8-38.9-63.8-44.1v-5.2h34.2C57.2,49.8,84.7,76.2,86.8,99z"/>
</svg>
