<svg xmlns="http://www.w3.org/2000/svg" xmlns:xlink="http://www.w3.org/1999/xlink" width="310" height="310"><defs><linearGradient id="linear-gradient" x1="161.531" y1="111.688" x2="161.531" y2="140.219" gradientUnits="userSpaceOnUse"><stop offset="0" stop-color="#aeb6fe"/><stop offset=".577" stop-color="#aeb6fe" stop-opacity="0"/></linearGradient><linearGradient id="linear-gradient-3" x1="149.75" y1="162.438" x2="149.75" y2="198.219" xlink:href="#linear-gradient"/><style>.cls-2,.cls-3,.cls-5,.cls-6{fill-rule:evenodd}.cls-2{fill:#fff}.cls-3{fill:url(#linear-gradient)}.cls-5{fill:url(#linear-gradient-3)}.cls-6{fill:#ff0b61}</style></defs><path id="TANK_копия" data-name="TANK копия" d="M98.157 92.72v8.189l7.977-.958v40.088h9.418v-39.923l7.5.793V92.72H98.157Zm32.693 1.453a10.03 10.03 0 0 0-3.86 3.9 11.039 11.039 0 0 0-1.346 5.415v14.3h-3.46l3.46 8.19v14.067h9.419V125.08h.037l7.913.529v14.43h9.418V92.72h-15.478a12.015 12.015 0 0 0-6.103 1.453Zm4.213 11.425q0-3.6 1.377-4.358a9.563 9.563 0 0 1 4.1-.595q1.089 0 2.435.066h.032v17.071h-7.945V105.6Zm38.027-3.434-6.76-9.213-.224-.263-9.066-.033v47.385h9.26v-33.154l6.792 9.279v23.874h9.386V92.72h-9.388v9.444Zm42.352 37.875-6.728-18.756q2.178-1.815 3.973-3.566v-25h-9.259v21.2q-3.909 3.4-6.792 5.548V92.72h-9.386v47.319h9.386v-9.775q1.763-1.221 4-2.806l4.709 12.581h10.092Z" style="fill-rule:evenodd;fill:#043159"/><path id="TANK" class="cls-2" d="M99.878 91.842v7.71l7.744-.9v37.74h9.145V98.806l7.278.746v-7.71H99.878Zm31.741 1.368a9.6 9.6 0 0 0-3.748 3.668 10.143 10.143 0 0 0-1.306 5.1v13.461h-3.36l3.36 7.709v13.244h9.144v-14.084h.031l7.683.5v13.586h9.144V91.842h-15.023a11.954 11.954 0 0 0-5.925 1.369Zm4.09 10.755q0-3.387 1.338-4.1a9.551 9.551 0 0 1 3.981-.56q1.056 0 2.364.063h.031v16.072h-7.714v-11.474Zm36.92-3.233-6.563-8.673-.218-.249-8.8-.031v44.611h8.989v-31.211l6.594 8.735v22.477h9.113V91.842h-9.113v8.891Zm41.119 35.658-6.532-17.658q2.115-1.71 3.857-3.358V91.842h-8.989V111.8q-3.8 3.2-6.594 5.222v-25.18h-9.113v44.549h9.113v-9.2q1.71-1.149 3.888-2.641l4.572 11.844h9.8Z"/><path id="Фигура_2_1" data-name="Фигура 2 1" class="cls-3" d="M208.662 111.681v2.938a36.654 36.654 0 0 0-2.978 2.519c-1.633 1.531 0 3.359 0 3.359l7.841 19.732h-4.589l-7.506-16.373a1.939 1.939 0 0 0-2.127-1.26 4.438 4.438 0 0 0-2.127.84l-3.829 2.1v14.694h-4.679v-28.549h4.679v5.457a1.875 1.875 0 0 0 2.127 1.68 1.67 1.67 0 0 0 1.277-.42l7.232-5.458v-1.259h4.679Zm-34.033 1.259-1.276-1.259h5.956v28.548h-4.68V112.94Zm-15.314-1.259h4.679v28.548h-4.679v-28.548ZM145.276 122.6c0-2.721-2.978-2.519-2.978-2.519h-4.679c-4.331 0-3.829 2.519-3.829 2.519v17.633h-5.1V122.6s-1.494-3.98-2.127-5.038c.006-.008 2.127-.692 2.127-2.1v-3.779h4.68v2.938s-.077 2.939 2.552 2.939h7.232a2.632 2.632 0 0 0 2.553-2.939v-2.938h4.679v28.548h-5.1V122.6Zm-35.734-10.915h5.105v28.548h-5.105v-28.552Z"/><path id="Фигура_2_1_копия" data-name="Фигура 2 1 копия" class="cls-3" d="M208.662 111.681v2.938a36.654 36.654 0 0 0-2.978 2.519c-1.633 1.531 0 3.359 0 3.359l7.841 19.732h-4.589l-7.506-16.373a1.939 1.939 0 0 0-2.127-1.26 4.438 4.438 0 0 0-2.127.84l-3.829 2.1v14.694h-4.679v-28.549h4.679v5.457a1.875 1.875 0 0 0 2.127 1.68 1.67 1.67 0 0 0 1.277-.42l7.232-5.458v-1.259h4.679Zm-34.033 1.259-1.276-1.259h5.956v28.548h-4.68V112.94Zm-15.314-1.259h4.679v28.548h-4.679v-28.548ZM145.276 122.6c0-2.721-2.978-2.519-2.978-2.519h-4.679c-4.331 0-3.829 2.519-3.829 2.519v17.633h-5.1V122.6s-1.494-3.98-2.127-5.038c.006-.008 2.127-.692 2.127-2.1v-3.779h4.68v2.938s-.077 2.939 2.552 2.939h7.232a2.632 2.632 0 0 0 2.553-2.939v-2.938h4.679v28.548h-5.1V122.6Zm-35.734-10.915h5.105v28.548h-5.105v-28.552Z"/><path id="metaverse_копия_4" data-name="metaverse копия 4" d="M39.086 152.631q-4.484-5.022-8.969-10.062H18.389v53.646q4.816-.323 9.631-.623c0-13.634-.005-27.657-.005-41.76q3.121 3.9 6.242 7.784c0 11.437 0 22.725.007 33.6q4.83-.288 9.658-.552c0-10.517-.005-21.679-.006-33.07q3.121-3.878 6.242-7.772v40.51q4.827-.251 9.653-.479v-51.282H48.054q-4.484 5.035-8.968 10.06Zm50.132-10.062H64.841v28.028l-3.58.025a689.206 689.206 0 0 0 3.579 8.745v14.253q4.809-.231 9.616-.44 7.367-.3 14.733-.54c.006-2.481.011-5.07.015-7.746q-7.37.574-14.741 1.2v-7.8l14.744.741c0-2.792.005-5.658.007-8.581q-7.374.036-14.748.08v-19.7l14.751 1 .001-9.265Zm1.577 0v9.266l8.18-1.081c0 15.073-.007 29.724-.048 41.616q4.822-.138 9.644-.252c.053-11.63.061-26.177.062-41.178l7.687.892v-9.263H90.795Zm33.525 1.647a10.932 10.932 0 0 0-3.959 4.411 13.462 13.462 0 0 0-1.38 6.1c0 5.335 0 10.581-.011 15.618l-3.547.011c1.179 2.885 2.356 5.7 3.531 8.417-.011 4.682-.028 9.095-.051 13.129q4.821-.092 9.643-.16c.03-4.237.05-8.922.064-13.914h.033q4.054.246 8.108.495c-.015 4.779-.038 9.263-.071 13.32q4.822-.048 9.644-.075c.122-13.231.122-31.113.122-48.995h-15.868a11.4 11.4 0 0 0-6.258 1.643Zm4.318 12.863c0-2.671.472-4.309 1.414-4.877a9.038 9.038 0 0 1 4.205-.669q1.118 0 2.5.074h.033c0 6.4 0 12.708-.015 18.7q-4.074.006-8.146.015c.004-4.285.007-8.722.009-13.243Zm40.385 22.582q-2.043 1.417-4.087 2.8-2.028-1.385-4.056-2.807c.054-11.175.054-24.128.054-37.081h-13.207c1.183 3.095 2.366 6.189 3.548 9.26 0 11.588-.015 22.832-.073 32.43q6.833 4.679 13.64 8.816 6.907-4.072 13.806-8.76c.092-12.2.092-26.971.092-41.746h-9.659c0 12.949 0 25.902-.058 37.088Zm38.856-37.092H183.5c0 9.472 0 18.943-.025 27.743l-3.58-.006a487.527 487.527 0 0 0 3.547 8.393c-.024 4.653-.059 9.026-.109 13q4.809.047 9.619.116 7.371.129 14.746.311c.031-2.394.056-4.908.077-7.523q-7.378.324-14.754.663c.02-2.379.036-4.854.049-7.407q7.372.487 14.744 1c.016-2.748.027-5.581.036-8.478q-7.375-.029-14.75-.047c.018-6.253.024-12.832.025-19.506l14.75 1c.004-3.07.004-6.164.004-9.259Zm30.221 50.657a925.417 925.417 0 0 1-4.8-18.925q2.439-2.076 4.383-4.064c.013-5.05.019-10.244.021-15.5a13.467 13.467 0 0 0-1.378-6.107 10.932 10.932 0 0 0-3.958-4.414 11.4 11.4 0 0 0-6.259-1.647h-14c0 17.882 0 35.764-.179 49.694q4.83.129 9.661.281c.038-3.014.067-6.2.091-9.505q1.551-1.021 3.268-2.264a684.805 684.805 0 0 0 3.149 12.076q5.006.176 10.001.375Zm-15.5-41.615a27.961 27.961 0 0 1 3.22.149 3.1 3.1 0 0 1 2.086 1.061 4.925 4.925 0 0 1 .754 2.653c.076 1.208.113 2.9.111 5.045q0 2.82-.009 5.595a38.532 38.532 0 0 1-7.014 6.01c.022-6.592.029-13.5.031-20.513h.821Zm44.319-9.042h-13.6a11.417 11.417 0 0 0-6.242 1.647 10.779 10.779 0 0 0-3.959 4.414 13.643 13.643 0 0 0-1.365 6.109c0 3.811 0 7.59-.012 11.311 5.545 4.489 11.086 8.921 16.626 13.355v.633a15.444 15.444 0 0 1-.413 4.187 1.881 1.881 0 0 1-1.488 1.438 13.433 13.433 0 0 1-2.666.148q-.591-.015-1.282-.069-.987-.058-2.2-.091-.45-4.265-.911-8.7-3.844-.346-7.688-.686c-.023 5.944-.06 11.647-.116 16.977q7.008.29 14.02.628a12.063 12.063 0 0 0 6.25-1.158 9.468 9.468 0 0 0 3.991-3.847 11.555 11.555 0 0 0 1.408-5.682q.016-4.784.027-9.7c-5.546-4.441-11.092-8.871-16.64-13.342v-.515q0-.48.017-1.2t.034-1.425q.017-.7.05-1.187c.067-2.029.516-3.247 1.348-3.643a11.043 11.043 0 0 1 4.337-.6q.657 0 1.446.038h.2c0 3.718 0 7.42-.006 11.086l7.687.648 1.143-20.774Zm28.351 0h-24.38c0 9.472 0 18.943-.014 28.188l-3.583-.029q1.784 4.531 3.564 9.013c-.014 5.092-.034 10.091-.062 14.956q4.829.252 9.659.529 7.4.449 14.812.951v-9.284q-7.4.22-14.788.435.011-4.16.018-8.377 7.383.638 14.77 1.316v-9.284q-7.38-.075-14.76-.142c.007-6.612.009-13.3.009-20l14.751 1.014v-9.284Z" style="fill:#003d74;fill-rule:evenodd"/><path id="metaverse_копия_3" data-name="metaverse копия 3" class="cls-2" d="M39.086 151.305q-4.484-4.374-8.969-8.763H18.389v46.717q4.816-.279 9.631-.541c0-11.873-.005-24.085-.005-36.367q3.121 3.4 6.242 6.779c0 9.959 0 19.789.007 29.258q4.83-.251 9.658-.48c0-9.159-.005-18.88-.006-28.8q3.121-3.375 6.242-6.767v35.278q4.827-.219 9.653-.417v-44.66H48.054q-4.484 4.386-8.968 8.763Zm50.132-8.763H64.841v24.409l-3.58.021a554.781 554.781 0 0 0 3.579 7.615v12.414q4.809-.2 9.616-.383 7.367-.26 14.733-.471c.006-2.162.011-4.415.015-6.746q-7.37.5-14.741 1.043v-6.789l14.743.645c0-2.431.005-4.928.007-7.473q-7.374.031-14.748.07v-17.16l14.751.874c.002-2.678.002-5.373.002-8.069Zm1.577 0v8.07l8.18-.942c0 13.127-.007 25.885-.048 36.242q4.822-.12 9.644-.22c.053-10.128.061-22.8.062-35.861l7.687.777v-8.066H90.795Zm33.525 1.434a10.128 10.128 0 0 0-3.959 3.842 10.486 10.486 0 0 0-1.38 5.308c0 4.647 0 9.215-.011 13.6l-3.547.009a369.2 369.2 0 0 0 3.531 7.33 2996.67 2996.67 0 0 1-.051 11.433q4.821-.079 9.643-.139c.03-3.69.05-7.77.064-12.116h.033l8.108.431c-.015 4.162-.038 8.067-.071 11.6q4.822-.043 9.644-.066c.122-11.524.122-27.095.122-42.668h-15.868a12.713 12.713 0 0 0-6.258 1.436Zm4.318 11.2c0-2.327.472-3.753 1.414-4.248a10.219 10.219 0 0 1 4.205-.583q1.118 0 2.5.065h.033c0 5.577 0 11.066-.015 16.282q-4.074 0-8.146.012c.004-3.725.007-7.59.009-11.525Zm40.385 19.664q-2.043 1.236-4.087 2.436-2.028-1.206-4.056-2.445c.054-9.732.054-21.012.054-32.292h-13.207c1.183 2.7 2.366 5.391 3.548 8.065 0 10.091-.015 19.883-.073 28.241q6.833 4.075 13.64 7.678 6.907-3.546 13.806-7.63c.092-10.621.092-23.487.092-36.354h-9.659c0 11.283 0 22.561-.058 32.304Zm38.856-32.3H183.5c0 8.249 0 16.5-.025 24.159h-3.58q1.778 3.756 3.547 7.309c-.024 4.053-.059 7.86-.109 11.321q4.809.041 9.619.1 7.371.111 14.746.27c.031-2.084.056-4.274.077-6.551q-7.377.282-14.754.578c.02-2.073.036-4.228.049-6.451q7.372.426 14.744.87c.016-2.392.027-4.86.036-7.383q-7.375-.024-14.75-.04c.018-5.446.024-11.175.025-16.988l14.75.876c.004-2.677.004-5.372.004-8.068Zm30.221 44.117c-1.58-5.17-3.183-10.7-4.8-16.481q2.441-1.806 4.384-3.539c.013-4.4.019-8.921.021-13.5a10.5 10.5 0 0 0-1.378-5.319 10.113 10.113 0 0 0-3.958-3.843 12.709 12.709 0 0 0-6.259-1.435h-14c0 15.573 0 31.145-.179 43.276q4.83.112 9.661.245c.038-2.625.067-5.394.091-8.277q1.551-.889 3.268-1.972a535.966 535.966 0 0 0 3.149 10.517q5.005.154 10 .328Zm-15.5-36.24a31.571 31.571 0 0 1 3.22.13 3.265 3.265 0 0 1 2.086.923 3.9 3.9 0 0 1 .754 2.31c.076 1.053.113 2.523.111 4.394q0 2.456-.009 4.873a37.676 37.676 0 0 1-7.014 5.234c.022-5.741.029-11.76.031-17.864h.821Zm44.319-7.875h-13.6a12.727 12.727 0 0 0-6.242 1.435 9.972 9.972 0 0 0-3.959 3.843 10.628 10.628 0 0 0-1.365 5.32c0 3.319 0 6.61-.012 9.85 5.545 3.91 11.086 7.77 16.626 11.631v.551a11.806 11.806 0 0 1-.413 3.647 1.792 1.792 0 0 1-1.488 1.252 15.545 15.545 0 0 1-2.666.13q-.591-.015-1.282-.061-.987-.051-2.2-.081-.45-3.711-.911-7.573l-7.688-.6c-.023 5.176-.06 10.143-.116 14.785q7.008.252 14.02.547a13.649 13.649 0 0 0 6.25-1.008 8.83 8.83 0 0 0 5.4-8.3q.016-4.166.027-8.444-8.319-5.8-16.64-11.618v-.448c0-.278.006-.627.017-1.045l.034-1.241c.011-.409.028-.753.05-1.033q.1-2.65 1.348-3.173a12.544 12.544 0 0 1 4.337-.519q.657 0 1.446.032h.2q0 4.857-.006 9.654 3.843.281 7.687.565c.375-5.969.758-12.034 1.142-18.098Zm28.351 0h-24.38c0 8.249 0 16.5-.014 24.548l-3.583-.025q1.784 3.945 3.564 7.849c-.014 4.434-.034 8.788-.062 13.024q4.829.221 9.659.46 7.4.391 14.812.829v-8.085q-7.4.192-14.788.379.011-3.622.018-7.3 7.383.556 14.77 1.147v-8.086q-7.38-.063-14.76-.122c.007-5.76.009-11.58.009-17.419q7.376.44 14.751.883v-8.086Z"/><path id="Фигура_3_1" data-name="Фигура 3 1" class="cls-5" d="M280.716 171.407s-2.551.2-2.551 1.691v25.13h-5.528v-23.861a8.554 8.554 0 0 0-2.551-5.5c1.562.037 2.551-1.691 2.551-1.691v-4.737h5.528v4.737a2.294 2.294 0 0 0 2.551 2.114c2.478 0 11.906-.423 11.906-.423v2.959Zm-23.4 13.889c-1.447-1.148-1.983-3.493-.408-3.742 1.859-.294 2.551-2.537 2.551-2.537s.351-2.664.425-4.227a3.657 3.657 0 0 0-.85-2.537l-13.814-9.81h8.341l11 7.7v8.455s-.436 4.949-6.378 6.342a2.974 2.974 0 0 0-.87.36Zm-17.766 12.932h-5.568c-2.427-7.752-6.715-21.422-7.267-23.015-.777-2.239-2.552-1.691-2.552-1.691s-1.519.716-3.4 1.691-1.276 2.113-1.276 2.113v20.9h-5.528v-35.783h5.1v5.157s-.011 2.115 2.551 2.115c1.2 0 1.435-.3 3.4-1.691s5.1-3.383 5.1-3.383a4.746 4.746 0 0 0 .4-2.2h4.7c-.05 3.284-.419 3.468-.419 3.468s-.414-.044-2.977 1.691-.85 4.651-.85 4.651Zm-48.978-25.552v25.552h-5.528v-24.284a8.558 8.558 0 0 0-2.551-5.5c1.562.037 2.551-1.692 2.551-1.692v-4.313h5.528v4.313a2.294 2.294 0 0 0 2.551 2.115c2.478 0 11.906-.423 11.906-.423v2.959l-11.906-.422s-2.551.2-2.551 1.695Zm-37.419-10.233h5.528v13.192l5.953 4.228 6.378-4.65v-12.77h5.1v35.785h-22.959v-35.785ZM138.7 197.2v-23.256a2.759 2.759 0 0 0-2.551-2.959h-6.8c-3.22 0-2.976 2.113-2.976 2.113v25.13H6.881l13.607-.034v-35.751h5.528v35.738l10.205-.025v-35.713h5.528v35.7l10.63-.025v-35.675h5.1V198.1l9.355-.022v-23.711a8.556 8.556 0 0 0-2.551-5.5c1.562.037 2.551-1.691 2.551-1.691v-4.737h5.528v4.313a2.294 2.294 0 0 0 2.551 2.115c2.478 0 11.906-.423 11.906-.423v2.959l-11.906-.422s-2.551.2-2.551 1.691v25.391l28.49-.063v-35.557h5.528v35.541l14.457-.035v-23.582a8.554 8.554 0 0 0-2.551-5.5c1.562.037 2.551-1.691 2.551-1.691v-4.737h5.528v3.891a1.942 1.942 0 0 0 2.126 2.114h8.079a2.329 2.329 0 0 0 2.126-2.537v-3.468h5.1v35.785h-5.1V197.2Z"/><path id="Фигура_3_1_копия" data-name="Фигура 3 1 копия" class="cls-5" d="M280.716 171.407s-2.551.2-2.551 1.691v25.13h-5.528v-23.861a8.554 8.554 0 0 0-2.551-5.5c1.562.037 2.551-1.691 2.551-1.691v-4.737h5.528v4.737a2.294 2.294 0 0 0 2.551 2.114c2.478 0 11.906-.423 11.906-.423v2.959Zm-23.4 13.889c-1.447-1.148-1.983-3.493-.408-3.742 1.859-.294 2.551-2.537 2.551-2.537s.351-2.664.425-4.227a3.657 3.657 0 0 0-.85-2.537l-13.814-9.81h8.341l11 7.7v8.455s-.436 4.949-6.378 6.342a2.974 2.974 0 0 0-.87.36Zm-17.766 12.932h-5.568c-2.427-7.752-6.715-21.422-7.267-23.015-.777-2.239-2.552-1.691-2.552-1.691s-1.519.716-3.4 1.691-1.276 2.113-1.276 2.113v20.9h-5.528v-35.783h5.1v5.157s-.011 2.115 2.551 2.115c1.2 0 1.435-.3 3.4-1.691s5.1-3.383 5.1-3.383a4.746 4.746 0 0 0 .4-2.2h4.7c-.05 3.284-.419 3.468-.419 3.468s-.414-.044-2.977 1.691-.85 4.651-.85 4.651Zm-48.978-25.552v25.552h-5.528v-24.284a8.558 8.558 0 0 0-2.551-5.5c1.562.037 2.551-1.692 2.551-1.692v-4.313h5.528v4.313a2.294 2.294 0 0 0 2.551 2.115c2.478 0 11.906-.423 11.906-.423v2.959l-11.906-.422s-2.551.2-2.551 1.695Zm-37.419-10.233h5.528v13.192l5.953 4.228 6.378-4.65v-12.77h5.1v35.785h-22.959v-35.785ZM138.7 197.2v-23.256a2.759 2.759 0 0 0-2.551-2.959h-6.8c-3.22 0-2.976 2.113-2.976 2.113v25.13H6.881l13.607-.034v-35.751h5.528v35.738l10.205-.025v-35.713h5.528v35.7l10.63-.025v-35.675h5.1V198.1l9.355-.022v-23.711a8.556 8.556 0 0 0-2.551-5.5c1.562.037 2.551-1.691 2.551-1.691v-4.737h5.528v4.313a2.294 2.294 0 0 0 2.551 2.115c2.478 0 11.906-.423 11.906-.423v2.959l-11.906-.422s-2.551.2-2.551 1.691v25.391l28.49-.063v-35.557h5.528v35.541l14.457-.035v-23.582a8.554 8.554 0 0 0-2.551-5.5c1.562.037 2.551-1.691 2.551-1.691v-4.737h5.528v3.891a1.942 1.942 0 0 0 2.126 2.114h8.079a2.329 2.329 0 0 0 2.126-2.537v-3.468h5.1v35.785h-5.1V197.2Z"/><path id="play_and_earn_копия" data-name="play and earn копия" class="cls-6" d="M93.779 202.239h-5.451v11.919H91.7v-3.116h2.078c3.254 0 5.3-1.686 5.3-4.393-.001-2.724-2.045-4.41-5.299-4.41Zm-.2 6.146H91.7V204.9h1.874c1.4 0 2.1.647 2.1 1.754-.004 1.085-.703 1.731-2.1 1.731Zm6.281 5.773h9.063v-2.674h-5.69v-9.245h-3.377v11.919Zm18.6 0h3.509l-5.281-11.919h-3.321l-5.267 11.919h3.441l.937-2.316h5.042Zm-4.991-4.8 1.531-3.816 1.533 3.814h-3.066Zm18.8-7.117h-3.271l-2.828 4.733-2.828-4.733h-3.56l4.548 7.593v4.326h3.37v-4.275Zm13.025 11.919h3.51l-5.281-11.919H140.2l-5.264 11.919h3.441l.937-2.316h5.042Zm-4.991-4.8 1.533-3.814 1.533 3.814H140.3Zm16.638-7.117v6.351l-5.264-6.351H148.9v11.919h3.3v-6.352l5.264 6.352h2.777v-11.923h-3.3Zm4.833 11.919h5.639c3.952 0 6.66-2.3 6.66-5.96s-2.708-5.959-6.66-5.959h-5.643v11.919Zm3.373-2.691v-6.538h2.129a3.271 3.271 0 1 1 0 6.538h-2.129Zm17.283.085v-2.179h5.3v-2.519h-5.3v-2.01h6.014v-2.6h-9.353v11.919h9.574v-2.606h-6.235Zm16.179 2.606h3.51l-5.281-11.919h-3.322l-5.264 11.919h3.441l.937-2.316h5.042Zm-4.991-4.8 1.533-3.814 1.533 3.814h-3.066Zm15.974 4.8h3.608l-2.572-3.746a3.956 3.956 0 0 0 2.334-3.763c0-2.724-2.044-4.41-5.3-4.41h-5.451v11.919h3.373v-3.167h1.839Zm-.034-7.509c0 1.09-.7 1.736-2.095 1.736h-1.874V204.9h1.874c1.392 0 2.091.642 2.091 1.749ZM222 202.239v6.351l-5.264-6.351h-2.777v11.919h3.3v-6.352l5.264 6.352h2.776v-11.919H222Z"/><path id="Фигура_5_1" data-name="Фигура 5 1" d="M270.559 195.272v-3.436c8.006.438 16.3.947 24.748 1.537v3.405c-6.407-.44-14.676-.961-24.748-1.506ZM264.2 191.5l.1.006a13.612 13.612 0 0 1-6.331 3.125q-7.686-.369-16.429-.734v-3.421c4.966.195 10.154.419 15.51.673 3.336-.334 8.1-1.527 10.091-5.486a8.159 8.159 0 0 1-2.941 5.837Zm-36.014 1.878h-.3l-2.133-9.858 2.421 6.48q4.4.142 9.108.317l.9 3.445q-4.846-.193-10-.381Zm-16.511-3.846c3.074.073 6.354.16 9.814.26v3.353c-3.2-.108-6.455-.214-9.814-.316v-3.3Zm-28.588-.44s9.365.015 24.748.352v3.27q-11.748-.342-24.748-.621v-3Zm-32-3.54v-3.825l13.654 8.076 13.654-7.651v3.4l-13.654 8.5Zm-14.935 3.572c6.536-.048 10.241-.032 10.241-.032v3c-3.492.052-6.888.112-10.241.173v-3.142Zm-17.494.219q5.362-.093 9.814-.144v3.218c-3.334.069-6.621.141-9.814.218v-3.292ZM98.6 189.8q5.118-.142 9.814-.247v3.347c-3.356.093-6.636.189-9.814.288V189.8Zm-34.134 1.24c8.683-.395 16.986-.711 24.748-.963v3.417c-9.086.315-17.352.649-24.748.983v-3.437Zm-14.934.743q5.188-.28 10.241-.523v3.434q-5.465.26-10.241.513v-3.424Zm-15.788.93q4.948-.316 9.814-.6v3.416c-3.651.206-6.932.4-9.814.584v-3.4Zm-15.788 4.523v-3.429q4.93-.369 9.814-.7v3.4c-6.494.443-9.814.729-9.814.729Z" style="fill:#0bb7ff;fill-rule:evenodd"/><path id="Фигура_5_1_копия" data-name="Фигура 5 1 копия" class="cls-6" d="M270.559 195.272v-3.436c8.006.438 16.3.947 24.748 1.537v3.405c-6.407-.44-14.676-.961-24.748-1.506ZM264.2 191.5l.1.006a13.612 13.612 0 0 1-6.331 3.125q-7.686-.369-16.429-.734v-3.421c4.966.195 10.154.419 15.51.673 3.336-.334 8.1-1.527 10.091-5.486a8.159 8.159 0 0 1-2.941 5.837Zm-36.014 1.878h-.3l-2.133-9.858 2.421 6.48q4.4.142 9.108.317l.9 3.445q-4.846-.193-10-.381Zm-16.511-3.846c3.074.073 6.354.16 9.814.26v3.353c-3.2-.108-6.455-.214-9.814-.316v-3.3Zm-28.588-.44s9.365.015 24.748.352v3.27q-11.748-.342-24.748-.621v-3Zm-32-3.54v-3.825l13.654 8.076 13.654-7.651v3.4l-13.654 8.5Zm-14.935 3.572c6.536-.048 10.241-.032 10.241-.032v3c-3.492.052-6.888.112-10.241.173v-3.142Zm-17.494.219q5.362-.093 9.814-.144v3.218c-3.334.069-6.621.141-9.814.218v-3.292ZM98.6 189.8q5.118-.142 9.814-.247v3.347c-3.356.093-6.636.189-9.814.288V189.8Zm-34.134 1.24c8.683-.395 16.986-.711 24.748-.963v3.417c-9.086.315-17.352.649-24.748.983v-3.437Zm-14.934.743q5.188-.28 10.241-.523v3.434q-5.465.26-10.241.513v-3.424Zm-15.788.93q4.948-.316 9.814-.6v3.416c-3.651.206-6.932.4-9.814.584v-3.4Zm-15.788 4.523v-3.429q4.93-.369 9.814-.7v3.4c-6.494.443-9.814.729-9.814.729Z"/></svg>