<?xml version="1.0" encoding="utf-8"?>
<!-- Generator: Adobe Illustrator 24.1.2, SVG Export Plug-In . SVG Version: 6.00 Build 0)  -->
<svg version="1.1" id="Слой_1" xmlns="http://www.w3.org/2000/svg" xmlns:xlink="http://www.w3.org/1999/xlink" x="0px" y="0px"
	 viewBox="0 0 32 32" style="enable-background:new 0 0 32 32;" xml:space="preserve">
<style type="text/css">
	.st0{fill:#FFFFFF;}
</style>
<desc>Created with Sketch.</desc>
<g id="icons">
	<g id="ui-gambling-website-lined-icnos-casinoshunter" transform="translate(-1776.000000, -284.000000)">
		<g id="_x31_" transform="translate(1350.000000, 120.000000)">
			<path id="paper" class="st0" d="M448.5,164v5c0,1.6,1.1,3,2.7,3l4.3,0v21c0,1.7-1.3,3-3,3h-21c-1.7,0-3-1.3-3-3v-26
				c0-1.7,1.3-3,3-3L448.5,164z M450.8,164.5l4,3.5c0.4,0.4,0.7,0.9,0.7,1.5v0.5l-4.3,0c-0.3,0-0.7-0.4-0.7-1l0-4.7
				C450.6,164.3,450.7,164.4,450.8,164.5z"/>
		</g>
	</g>
</g>
</svg>
