<svg xmlns="http://www.w3.org/2000/svg" xmlns:xlink="http://www.w3.org/1999/xlink" id="&#x421;&#x43B;&#x43E;&#x439;_1" x="0px" y="0px" viewBox="0 0 768 721" style="enable-background:new 0 0 768 721;" xml:space="preserve"><style type="text/css">	.st0{fill-rule:evenodd;clip-rule:evenodd;fill:#08DFFF;}	.st1{fill-rule:evenodd;clip-rule:evenodd;fill:#18203C;}	.st2{fill-rule:evenodd;clip-rule:evenodd;fill:#FFFFFF;}	.st3{fill-rule:evenodd;clip-rule:evenodd;fill:url(#Фигура_2_1_1_);}	.st4{fill-rule:evenodd;clip-rule:evenodd;fill:url(#Фигура_2_1_копия_1_);}	.st5{fill-rule:evenodd;clip-rule:evenodd;fill:#171E36;}	.st6{fill-rule:evenodd;clip-rule:evenodd;fill:url(#Фигура_3_1_1_);}	.st7{fill-rule:evenodd;clip-rule:evenodd;fill:#0BB7FF;}	.st8{fill-rule:evenodd;clip-rule:evenodd;fill:#FA0B60;}</style><path id="&#x424;&#x438;&#x433;&#x443;&#x440;&#x430;_1524_1" class="st0" d="M497.4,231.1v-4.7h19.8v4.7H497.4z M462.9,231.1v-4.7h20v4.7H462.9z M432.9,231.1 l-0.2,0.2v-4.9h20v4.7H432.9z M417.1,231.1h-18.6v-4.8l19.3,0.1l0.5,0.5l6.7,7.9L417.1,231.1z M348.4,231.1c-6.1,0-11.6,4-15.4,7.8 c0.4-0.9,0.9-1.8,1.4-2.7c2-3.1,4.9-5.6,8.2-7.2c4.1-1.9,8.5-2.8,13-2.7h33v4.7L348.4,231.1L348.4,231.1z M272.9,231.1v-4.7H326v4.7 H272.9z"></path><path id="TANK_&#x43A;&#x43E;&#x43F;&#x438;&#x44F;_2" class="st1" d="M262,237.2v20.2l18.6-2.4v99h21.9v-98.6l17.5,2v-20.2H262z M338.1,240.7 c-3.8,2.3-6.9,5.6-9,9.6c-2.1,4.1-3.2,8.7-3.1,13.4V299h-8.1l8.1,20.2V354h21.9v-36.9h0.1l18.4,1.3V354h21.9V237.2h-36 C347.3,237,342.4,238.2,338.1,240.7L338.1,240.7z M347.9,269c0-5.9,1.1-9.5,3.2-10.8c1.7-1,4.9-1.5,9.5-1.5c1.7,0,3.6,0.1,5.7,0.2 h0.1V299h-18.5L347.9,269L347.9,269z M436.4,260.5l-15.7-22.8l-0.5-0.6l-21.1-0.1v117h21.6v-81.9l15.8,22.9v59h21.9V237.2h-21.9 L436.4,260.5L436.4,260.5z M535,354l-15.7-46.3c3.4-3,6.5-5.9,9.2-8.8v-61.7H507v52.3c-6.1,5.6-11.3,10.2-15.8,13.7v-66h-21.9V354 h21.9v-24.1c2.7-2,5.8-4.3,9.3-6.9l11,31.1H535V354z"></path><path id="TANK" class="st2" d="M273.9,235.9v16.4l16.9-1.9v80.1h20v-79.8l15.9,1.6v-16.4L273.9,235.9L273.9,235.9z M343.3,238.8 c-3.4,1.8-6.2,4.5-8.2,7.8c-1.9,3.3-2.9,7-2.9,10.8V286h-7.3l7.3,16.4v28.1h20v-29.9h0.1l16.8,1.1v28.8h20v-94.6h-32.8 C351.7,235.8,347.3,236.8,343.3,238.8L343.3,238.8z M352.2,261.6c0-4.8,1-7.7,2.9-8.7c1.5-0.8,4.4-1.2,8.7-1.2c1.5,0,3.3,0,5.2,0.1 h0.1V286h-16.9L352.2,261.6L352.2,261.6z M432.9,254.8l-14.3-18.4l-0.5-0.5l-19.2-0.1v94.7h19.7v-66.3l14.4,18.5v47.7h19.9v-94.6 H433L432.9,254.8L432.9,254.8z M522.8,330.5L508.5,293c3.1-2.4,5.9-4.8,8.4-7.1V236h-19.7v42.4c-5.5,4.5-10.3,8.2-14.4,11.1V236H463 v94.6h19.9v-19.5c2.5-1.6,5.3-3.5,8.5-5.6l10,25.1L522.8,330.5L522.8,330.5z"></path><linearGradient id="&#x424;&#x438;&#x433;&#x443;&#x440;&#x430;_2_1_1_" gradientUnits="userSpaceOnUse" x1="408.65" y1="348.11" x2="408.65" y2="408.71" gradientTransform="matrix(1 0 0 1 0 -70.11)">	<stop offset="0" style="stop-color:#AEB6FE"></stop>	<stop offset="0.577" style="stop-color:#AEB6FE;stop-opacity:0"></stop></linearGradient><path id="&#x424;&#x438;&#x433;&#x443;&#x440;&#x430;_2_1" class="st3" d="M511.7,278v6.2c-2.3,1.7-4.4,3.5-6.5,5.3c-3.6,3.2,0,7.1,0,7.1l17.1,41.9h-10l-16.4-34.8 c0,0-0.6-2.7-4.6-2.7c-2.2,0-4.7,1.8-4.7,1.8l-8.4,4.5v31.2H468V278h10.2v11.6c0,0,0.1,3.6,4.7,3.6c1,0.1,2-0.2,2.8-0.9l15.8-11.6 V278H511.7z M437.3,280.7l-2.8-2.7h13v60.6h-10.2V280.7z M403.8,278H414v60.6h-10.2V278z M373.1,301.2c0-5.8-6.5-5.3-6.5-5.3h-10.2 c-9.5,0-8.4,5.3-8.4,5.3v37.4h-11.2v-37.4c0,0-3.3-8.4-4.6-10.7c0,0,4.6-1.5,4.6-4.5v-8H347v6.2c0,0-0.2,6.2,5.6,6.2h15.8 c0,0,5.6,0,5.6-6.2V278h10.2v60.6H373v-37.4H373.1z M295,278h11.2v60.6H295V278z"></path><linearGradient id="&#x424;&#x438;&#x433;&#x443;&#x440;&#x430;_2_1_&#x43A;&#x43E;&#x43F;&#x438;&#x44F;_1_" gradientUnits="userSpaceOnUse" x1="408.65" y1="348.11" x2="408.65" y2="408.71" gradientTransform="matrix(1 0 0 1 0 -70.11)">	<stop offset="0" style="stop-color:#AEB6FE"></stop>	<stop offset="0.577" style="stop-color:#AEB6FE;stop-opacity:0"></stop></linearGradient><path id="&#x424;&#x438;&#x433;&#x443;&#x440;&#x430;_2_1_&#x43A;&#x43E;&#x43F;&#x438;&#x44F;" class="st4" d="M511.7,278v6.2c-2.3,1.7-4.4,3.5-6.5,5.3c-3.6,3.2,0,7.1,0,7.1l17.1,41.9h-10 l-16.4-34.8c0,0-0.6-2.7-4.6-2.7c-2.2,0-4.7,1.8-4.7,1.8l-8.4,4.5v31.2H468V278h10.2v11.6c0,0,0.1,3.6,4.7,3.6c1,0.1,2-0.2,2.8-0.9 l15.8-11.6V278H511.7z M437.3,280.7l-2.8-2.7h13v60.6h-10.2V280.7z M403.8,278H414v60.6h-10.2V278z M373.1,301.2 c0-5.8-6.5-5.3-6.5-5.3h-10.2c-9.5,0-8.4,5.3-8.4,5.3v37.4h-11.2v-37.4c0,0-3.3-8.4-4.6-10.7c0,0,4.6-1.5,4.6-4.5v-8H347v6.2 c0,0-0.2,6.2,5.6,6.2h15.8c0,0,5.6,0,5.6-6.2V278h10.2v60.6H373v-37.4H373.1z M295,278h11.2v60.6H295V278z"></path><path id="metaverse_&#x43A;&#x43E;&#x43F;&#x438;&#x44F;_5" class="st5" d="M127.6,364.7c-6.7-7-13.4-14.1-20.2-21.2H81v113c7.2-0.5,14.4-0.9,21.7-1.3 c0-28.7,0-58.2,0-87.9c4.7,5.5,9.4,10.9,14,16.4c0,24.1,0,47.9,0,70.8c7.2-0.4,14.5-0.8,21.7-1.2c0-22.1,0-45.7,0-69.6 c4.7-5.4,9.4-10.9,14-16.4c0,29.6,0,58.7,0,85.3c7.2-0.4,14.5-0.7,21.7-1c0-32.7,0-70.3,0-108h-26.5 C141,350.6,134.3,357.6,127.6,364.7z M240.3,343.5h-54.8c0,19.9,0,39.9,0,59c-2.7,0-5.4,0-8.1,0.1c2.7,6.2,5.4,12.4,8.1,18.4 c0,10.4,0,20.4,0,30c7.2-0.3,14.4-0.6,21.6-0.9c11-0.4,22.1-0.8,33.1-1.1c0-5.2,0-10.7,0-16.3c-11.1,0.8-22.1,1.6-33.2,2.5 c0-5.3,0-10.8,0-16.4l33.2,1.6c0-5.9,0-11.9,0-18.1c-11.1,0.1-22.1,0.1-33.2,0.2c0-13.5,0-27.4,0-41.5l33.2,2.1L240.3,343.5 L240.3,343.5z M243.9,343.5V363l18.4-2.3c0,31.7,0,62.6-0.1,87.6c7.2-0.2,14.5-0.4,21.7-0.5c0.1-24.5,0.1-55.1,0.1-86.7l17.3,1.9 c0-6.5,0-13,0-19.5L243.9,343.5L243.9,343.5z M319.3,347c-3.8,2.2-6.8,5.4-8.9,9.3c-2.1,4-3.2,8.4-3.1,12.8c0,11.2,0,22.3,0,32.9h-8 c2.7,6.1,5.3,12,7.9,17.7c0,9.9-0.1,19.2-0.1,27.6c7.2-0.1,14.5-0.2,21.7-0.3c0.1-8.9,0.1-18.8,0.1-29.3h0.1 c6.1,0.3,12.2,0.7,18.2,1c0,10.1-0.1,19.5-0.2,28c7.2-0.1,14.5-0.1,21.7-0.2c0.3-27.9,0.3-65.5,0.3-103.2h-35.7 C328.4,343.3,323.6,344.5,319.3,347L319.3,347z M329,374c0-5.6,1.1-9.1,3.2-10.3c1.7-0.9,4.8-1.4,9.5-1.4c1.7,0,3.5,0.1,5.6,0.2h0.1 c0,13.5,0,26.8,0,39.4c-6.1,0-12.2,0-18.3,0C329,392.9,329,383.6,329,374L329,374z M419.8,421.6c-3.1,2-6.1,4-9.2,5.9 c-3-1.9-6.1-3.9-9.1-5.9c0.1-23.5,0.1-50.8,0.1-78.1h-29.7c2.7,6.5,5.3,13,8,19.5c0,24.4,0,48.1-0.2,68.3 c10.2,6.6,20.5,12.8,30.7,18.6c10.4-5.7,20.7-11.9,31.1-18.4c0.2-25.7,0.2-56.8,0.2-87.9H420C419.9,370.8,419.9,398,419.8,421.6z  M507.2,343.5h-54.8c0,19.9,0,39.9-0.1,58.4h-8.1c2.7,6.1,5.3,12,8,17.7c-0.1,9.8-0.1,19-0.2,27.4c7.2,0.1,14.4,0.1,21.6,0.2 c11.1,0.2,22.1,0.4,33.2,0.7c0.1-5,0.1-10.3,0.2-15.8c-11.1,0.5-22.1,0.9-33.2,1.4c0-5,0.1-10.2,0.1-15.6 c11.1,0.7,22.1,1.4,33.2,2.1c0-5.8,0.1-11.8,0.1-17.9c-11.1,0-22.1-0.1-33.2-0.1c0-13.2,0.1-27,0.1-41.1l33.2,2.1 C507.2,356.5,507.2,350,507.2,343.5L507.2,343.5z M575.2,450.2c-3.6-12.5-7.2-25.9-10.8-39.9c3.7-2.9,6.9-5.8,9.9-8.6 c0-10.6,0-21.6,0-32.6c0.1-4.5-1-8.9-3.1-12.9c-2-3.9-5.1-7.1-8.9-9.3c-4.3-2.4-9.2-3.6-14.1-3.5h-31.5c0,37.7,0,75.3-0.4,104.6 c7.2,0.2,14.5,0.4,21.7,0.6c0.1-6.3,0.2-13,0.2-20c2.3-1.4,4.8-3,7.4-4.8c2.4,8.9,4.7,17.4,7.1,25.4 C560.2,449.6,567.7,449.9,575.2,450.2L575.2,450.2z M540.3,362.5c2.4,0,4.8,0.1,7.2,0.3c1.8,0.1,3.5,0.9,4.7,2.2 c1,1.2,1.5,3,1.7,5.6c0.2,2.5,0.3,6.1,0.2,10.6c0,4,0,7.9,0,11.8c-4.7,4.8-10,9.1-15.8,12.7c0-13.9,0.1-28.4,0.1-43.2H540.3 L540.3,362.5z M640,343.5h-30.6c-4.9-0.1-9.8,1.1-14,3.5c-3.8,2.2-6.9,5.4-8.9,9.3c-2.1,4-3.1,8.4-3.1,12.9c0,8,0,16,0,23.8 c12.5,9.5,24.9,18.8,37.4,28.1c0,0.4,0,0.9,0,1.3c0,4.1-0.3,7.1-0.9,8.8c-0.4,1.6-1.7,2.8-3.3,3c-2,0.3-4,0.4-6,0.3 c-0.9,0-1.8-0.1-2.9-0.1c-1.5-0.1-3.1-0.1-5-0.2c-0.7-6-1.4-12.1-2-18.3c-5.8-0.5-11.5-1-17.3-1.4c-0.1,12.5-0.1,24.5-0.3,35.8 c10.5,0.4,21,0.8,31.5,1.3c5.5,0.2,10.2-0.5,14.1-2.4c3.7-1.7,6.9-4.6,9-8.1c2.1-3.6,3.2-7.8,3.2-12c0-6.7,0-13.5,0.1-20.4 c-12.5-9.4-25-18.7-37.4-28.1c0-0.4,0-0.7,0-1.1c0-0.7,0-1.5,0-2.5s0.1-2,0.1-3s0.1-1.8,0.1-2.5c0.2-4.3,1.2-6.8,3-7.7 s5.1-1.3,9.8-1.3c1,0,2.1,0,3.3,0.1h0.4c0,7.8,0,15.6,0,23.3c5.8,0.5,11.5,0.9,17.3,1.4C638.3,372.8,639.1,358.1,640,343.5 L640,343.5z M703.8,343.5H649c0,19.9,0,39.9,0,59.4c-2.7,0-5.4,0-8.1-0.1c2.7,6.4,5.3,12.7,8,19c0,10.7-0.1,21.3-0.1,31.5 c7.2,0.4,14.5,0.7,21.7,1.1c11.1,0.6,22.2,1.3,33.3,2v-19.6c-11.1,0.3-22.2,0.6-33.3,0.9c0-5.8,0-11.7,0-17.6 c11.1,0.9,22.1,1.8,33.2,2.8v-19.6c-11.1-0.1-22.1-0.2-33.2-0.3c0-13.9,0-28,0-42.1l33.2,2.1L703.8,343.5L703.8,343.5z"></path><path id="metaverse_&#x43A;&#x43E;&#x43F;&#x438;&#x44F;_3" class="st2" d="M135.7,362.1c-6.5-6.2-13.1-12.4-19.6-18.6H90.4v99.2c7-0.4,14-0.8,21.1-1.1 c0-25.2,0-51.1,0-77.2c4.5,4.8,9.1,9.6,13.6,14.4c0,21.1,0,42,0,62.1c7-0.4,14.1-0.7,21.1-1c0-19.4,0-40.1,0-61.1 c4.5-4.8,9.1-9.6,13.6-14.4c0,26,0,51.5,0,74.9c7-0.3,14.1-0.6,21.1-0.9c0-28.7,0-61.7,0-94.8h-25.7 C148.8,349.7,142.2,355.9,135.7,362.1z M245.3,343.5H192c0,17.5,0,35,0,51.8c-2.6,0-5.2,0-7.8,0c2.6,5.5,5.2,10.9,7.8,16.2 c0,9.1,0,17.9,0,26.3c7-0.3,14-0.6,21-0.8c10.7-0.4,21.5-0.7,32.2-1c0-4.6,0-9.4,0-14.3c-10.7,0.7-21.5,1.4-32.2,2.2 c0-4.7,0-9.5,0-14.4l32.2,1.4c0-5.2,0-10.5,0-15.9c-10.7,0-21.5,0.1-32.2,0.1c0-11.8,0-24.1,0-36.4l32.2,1.9 C245.3,355,245.3,349.2,245.3,343.5L245.3,343.5z M248.7,343.5v17.1l17.9-2c0,27.9,0,54.9-0.1,76.9c7-0.2,14.1-0.3,21.1-0.5 c0.1-21.5,0.1-48.4,0.1-76.1l16.8,1.6c0-5.7,0-11.4,0-17.1L248.7,343.5L248.7,343.5z M322,346.6c-7.3,3.7-11.8,11.3-11.7,19.4 c0,9.9,0,19.6,0,28.9h-7.8c2.6,5.3,5.2,10.5,7.7,15.6c0,8.7-0.1,16.8-0.1,24.3c7-0.1,14.1-0.2,21.1-0.3c0.1-7.8,0.1-16.5,0.1-25.7 c0,0,0,0,0.1,0l17.7,0.9c0,8.8-0.1,17.1-0.2,24.6c7-0.1,14.1-0.1,21.1-0.1c0.3-24.5,0.3-57.5,0.3-90.6h-34.7 C331,343.4,326.3,344.4,322,346.6L322,346.6z M331.5,370.3c0-4.9,1-8,3.1-9c1.6-0.8,4.7-1.2,9.2-1.2c1.6,0,3.4,0,5.5,0.1h0.1 c0,11.8,0,23.5,0,34.6c-5.9,0-11.9,0-17.8,0C331.5,386.9,331.5,378.7,331.5,370.3L331.5,370.3z M419.8,412.1c-3,1.8-6,3.5-8.9,5.2 c-3-1.7-5.9-3.4-8.9-5.2c0.1-20.7,0.1-44.6,0.1-68.5h-28.9c2.6,5.7,5.2,11.4,7.8,17.1c0,21.4,0,42.2-0.2,59.9 c10,5.8,19.9,11.2,29.8,16.3c10.1-5,20.1-10.4,30.2-16.2c0.2-22.5,0.2-49.9,0.2-77.2h-21.1C419.9,367.5,419.9,391.4,419.8,412.1 L419.8,412.1z M504.7,343.5h-53.3c0,17.5,0,35-0.1,51.3c-2.6,0-5.2,0-7.8,0c2.6,5.3,5.2,10.5,7.8,15.5c-0.1,8.6-0.1,16.7-0.2,24 c7,0.1,14,0.1,21,0.2c10.7,0.2,21.5,0.3,32.2,0.6c0.1-4.4,0.1-9.1,0.2-13.9c-10.8,0.4-21.5,0.8-32.3,1.2c0-4.4,0.1-9,0.1-13.7 c10.7,0.6,21.5,1.2,32.2,1.8c0-5.1,0.1-10.3,0.1-15.7c-10.7,0-21.5-0.1-32.2-0.1c0-11.6,0.1-23.7,0.1-36.1 c10.8,0.6,21.5,1.2,32.2,1.9C504.7,355,504.7,349.2,504.7,343.5L504.7,343.5z M570.8,437.2c-3.5-11-7-22.7-10.5-35 c3.6-2.6,6.7-5.1,9.6-7.5c0-9.3,0-18.9,0-28.7c0.1-8.2-4.4-15.7-11.7-19.4c-4.2-2.1-8.9-3.2-13.7-3H514c0,33.1,0,66.1-0.4,91.9 c7,0.2,14.1,0.3,21.1,0.5c0.1-5.6,0.1-11.5,0.2-17.6c2.3-1.3,4.6-2.7,7.1-4.2c2.3,7.8,4.6,15.2,6.9,22.3 C556.2,436.7,563.5,436.9,570.8,437.2L570.8,437.2z M536.9,360.2c2.9,0,5.3,0.1,7,0.3c1.7,0.1,3.3,0.8,4.6,2 c1.1,1.4,1.6,3.1,1.7,4.9c0.2,2.2,0.2,5.4,0.2,9.3c0,3.5,0,6.9,0,10.3c-4.7,4.3-9.8,8-15.3,11.1c0-12.2,0.1-25,0.1-37.9L536.9,360.2 L536.9,360.2z M633.8,343.5h-29.7c-4.7-0.1-9.4,0.9-13.6,3c-3.6,1.9-6.6,4.7-8.7,8.2c-2,3.4-3,7.3-3,11.3c0,7,0,14,0,20.9 c12.1,8.3,24.2,16.5,36.3,24.7c0,0.4,0,0.8,0,1.2c0.1,2.6-0.2,5.2-0.9,7.7c-0.5,1.4-1.7,2.5-3.3,2.7c-1.9,0.3-3.9,0.3-5.8,0.3 c-0.9,0-1.8-0.1-2.8-0.1c-1.4-0.1-3-0.1-4.8-0.2c-0.7-5.3-1.3-10.6-2-16.1c-5.6-0.4-11.2-0.8-16.8-1.3c-0.1,11-0.1,21.5-0.3,31.4 c10.2,0.4,20.4,0.7,30.7,1.2c4.7,0.3,9.3-0.4,13.7-2.1c3.5-1.5,6.6-3.9,8.7-7.1c2-3.1,3.1-6.8,3.1-10.5c0-5.9,0-11.9,0.1-17.9 c-12.1-8.2-24.3-16.4-36.4-24.7c0-0.3,0-0.6,0-1c0-0.6,0-1.3,0-2.2c0-0.9,0.1-1.8,0.1-2.6c0-0.9,0.1-1.6,0.1-2.2 c0.1-3.8,1.1-6,2.9-6.7s5-1.1,9.5-1.1c1,0,2,0,3.2,0.1h0.4c0,6.9,0,13.7,0,20.5c5.6,0.4,11.2,0.8,16.8,1.2 C632.1,369.3,633,356.4,633.8,343.5z M695.8,343.5h-53.3c0,17.5,0,35,0,52.1l-7.8-0.1c2.6,5.6,5.2,11.1,7.8,16.7 c0,9.4-0.1,18.7-0.1,27.6c7,0.3,14.1,0.6,21.1,1c10.8,0.6,21.6,1.1,32.4,1.8v-17.2c-10.8,0.3-21.6,0.5-32.3,0.8c0-5.1,0-10.3,0-15.5 c10.8,0.8,21.5,1.6,32.3,2.4V396c-10.8-0.1-21.5-0.2-32.3-0.3c0-12.2,0-24.6,0-37c10.8,0.6,21.5,1.2,32.3,1.9L695.8,343.5 L695.8,343.5z"></path><linearGradient id="&#x424;&#x438;&#x433;&#x443;&#x440;&#x430;_3_1_1_" gradientUnits="userSpaceOnUse" x1="377.65" y1="455.864" x2="377.65" y2="531.824" gradientTransform="matrix(1 0 0 1 0 -70.11)">	<stop offset="0" style="stop-color:#AEB6FE"></stop>	<stop offset="0.577" style="stop-color:#AEB6FE;stop-opacity:0"></stop></linearGradient><path id="&#x424;&#x438;&#x433;&#x443;&#x440;&#x430;_3_1" class="st6" d="M664,404.8c0,0-5.6,0.4-5.6,3.6v53.3h-12.1v-50.6c0-6.4-5.4-11.5-5.6-11.7 c3.4,0.1,5.6-3.6,5.6-3.6v-10.1h12.1v10.1c0,0,0.2,4.5,5.6,4.5s26-0.9,26-0.9v6.3L664,404.8z M612.8,434.3c-3.2-2.4-4.3-7.4-0.9-7.9 c4.1-0.6,5.6-5.4,5.6-5.4s0.8-5.7,0.9-9c0.1-2-0.6-3.9-1.9-5.4l-30.2-20.8h18.2l24,16.3V420c0,0-1,10.5-13.9,13.5 C614,433.7,613.4,433.9,612.8,434.3z M574,461.7h-12.2c-5.3-16.5-14.7-45.5-15.9-48.9c-1.7-4.8-5.6-3.6-5.6-3.6s-3.3,1.5-7.4,3.6 s-2.8,4.5-2.8,4.5v44.4H518v-76h11.2v11c0,0,0,4.5,5.6,4.5c2.6,0,3.1-0.6,7.4-3.6s11.2-7.2,11.2-7.2s0.7-0.8,0.9-4.7h10.3 c-0.1,7-0.9,7.4-0.9,7.4s-0.9-0.1-6.5,3.6s-1.9,9.9-1.9,9.9L574,461.7z M466.9,407.5v54.2h-12.1v-51.5c0-6.4-5.4-11.5-5.6-11.7 c3.4,0.1,5.6-3.6,5.6-3.6v-9.2h12.1v9.2c0,0,0.2,4.5,5.6,4.5s26-0.9,26-0.9v6.3l-26-0.9C472.5,403.9,466.9,404.3,466.9,407.5z  M385.1,385.8h12.1v28l13,9l13.9-9.9v-27.1h11.2v76h-50.2V385.8z M353.5,459.5v-49.4c0.2-3.3-2.3-6.1-5.6-6.3H333 c-7,0-6.5,4.5-6.5,4.5v53.3H65.3l29.7-0.1v-75.9h12.1v75.9l22.3-0.1v-75.8h12.1v75.8l23.2-0.1v-75.7h11.2v75.7h20.5V411 c0-6.4-5.4-11.5-5.6-11.7c3.4,0.1,5.6-3.6,5.6-3.6v-10.1h12.1v9.2c0,0,0.2,4.5,5.6,4.5s26-0.9,26-0.9v6.3l-26-0.9 c0,0-5.6,0.4-5.6,3.6v53.9l62.3-0.1v-75.5h12.1v75.4l31.6-0.1v-50.1c0-6.4-5.4-11.5-5.6-11.7c3.4,0.1,5.6-3.6,5.6-3.6v-10.1h12.1 v8.3c0,0-0.4,4.5,4.6,4.5h17.7c2.8-0.2,4.8-2.6,4.6-5.4l0,0v-7.4h11.2v76h-11.2L353.5,459.5L353.5,459.5z"></path><path id="&#x424;&#x438;&#x433;&#x443;&#x440;&#x430;_5_1" class="st7" d="M641.8,455.4v-7.3c17.5,0.9,35.6,2,54.1,3.3v7.2C681.9,457.7,663.8,456.6,641.8,455.4z  M627.9,447.4h0.2c-4,3.4-8.7,5.7-13.8,6.6c-11.2-0.5-23.2-1-35.9-1.6v-7.3c10.9,0.4,22.2,0.9,33.9,1.4c7.3-0.7,17.7-3.2,22.1-11.6 C634,439.9,631.7,444.4,627.9,447.4L627.9,447.4z M549.1,451.4h-0.6l-4.7-20.9l5.3,13.8c6.4,0.2,13.1,0.4,19.9,0.7l2,7.3 C563.9,452,556.6,451.7,549.1,451.4L549.1,451.4L549.1,451.4z M513,443.3c6.7,0.2,13.9,0.3,21.5,0.6v7.1c-7-0.2-14.1-0.5-21.5-0.7 V443.3L513,443.3z M450.5,442.3c0,0,20.5,0,54.1,0.7v6.9c-17.1-0.5-35.2-0.9-54.1-1.3V442.3L450.5,442.3z M380.6,434.8v-8.1 l29.9,17.1l29.9-16.2v7.2l-29.9,18L380.6,434.8z M347.9,442.4c14.3-0.1,22.4-0.1,22.4-0.1v6.4c-7.6,0.1-15.1,0.2-22.4,0.4V442.4z  M309.7,442.9c7.8-0.1,15-0.2,21.5-0.3v6.8c-7.3,0.1-14.5,0.3-21.5,0.5V442.9z M265.8,443.8c7.5-0.2,14.6-0.4,21.5-0.5v7.1 c-7.3,0.2-14.5,0.4-21.5,0.6V443.8L265.8,443.8z M191.2,446.5c19-0.8,37.1-1.5,54.1-2v7.3c-19.9,0.7-37.9,1.4-54.1,2.1L191.2,446.5 L191.2,446.5z M158.5,448c7.6-0.4,15-0.8,22.4-1.1v7.3c-8,0.4-15.4,0.7-22.4,1.1V448L158.5,448z M124,450c7.2-0.4,14.4-0.9,21.5-1.3 v7.3c-8,0.4-15.2,0.9-21.5,1.2V450z M89.5,459.6v-7.3c7.2-0.5,14.3-1,21.5-1.5v7.2C96.8,459,89.5,459.6,89.5,459.6L89.5,459.6z"></path><path id="&#x424;&#x438;&#x433;&#x443;&#x440;&#x430;_5_1_&#x43A;&#x43E;&#x43F;&#x438;&#x44F;" class="st8" d="M641.8,455.4v-7.3c17.5,0.9,35.6,2,54.1,3.3v7.2 C681.9,457.7,663.8,456.6,641.8,455.4z M627.9,447.4h0.2c-4,3.4-8.7,5.7-13.8,6.6c-11.2-0.5-23.2-1-35.9-1.6v-7.3 c10.9,0.4,22.2,0.9,33.9,1.4c7.3-0.7,17.7-3.2,22.1-11.6C634,439.9,631.7,444.4,627.9,447.4L627.9,447.4z M549.1,451.4h-0.6 l-4.7-20.9l5.3,13.8c6.4,0.2,13.1,0.4,19.9,0.7l2,7.3C563.9,452,556.6,451.7,549.1,451.4L549.1,451.4L549.1,451.4z M513,443.3 c6.7,0.2,13.9,0.3,21.5,0.6v7.1c-7-0.2-14.1-0.5-21.5-0.7V443.3L513,443.3z M450.5,442.3c0,0,20.5,0,54.1,0.7v6.9 c-17.1-0.5-35.2-0.9-54.1-1.3V442.3L450.5,442.3z M380.6,434.8v-8.1l29.9,17.1l29.9-16.2v7.2l-29.9,18L380.6,434.8z M347.9,442.4 c14.3-0.1,22.4-0.1,22.4-0.1v6.4c-7.6,0.1-15.1,0.2-22.4,0.4V442.4z M309.7,442.9c7.8-0.1,15-0.2,21.5-0.3v6.8 c-7.3,0.1-14.5,0.3-21.5,0.5V442.9z M265.8,443.8c7.5-0.2,14.6-0.4,21.5-0.5v7.1c-7.3,0.2-14.5,0.4-21.5,0.6V443.8L265.8,443.8z  M191.2,446.5c19-0.8,37.1-1.5,54.1-2v7.3c-19.9,0.7-37.9,1.4-54.1,2.1L191.2,446.5L191.2,446.5z M158.5,448 c7.6-0.4,15-0.8,22.4-1.1v7.3c-8,0.4-15.4,0.7-22.4,1.1V448L158.5,448z M124,450c7.2-0.4,14.4-0.9,21.5-1.3v7.3 c-8,0.4-15.2,0.9-21.5,1.2V450z M89.5,459.6v-7.3c7.2-0.5,14.3-1,21.5-1.5v7.2C96.8,459,89.5,459.6,89.5,459.6L89.5,459.6z"></path></svg>