<svg xmlns="http://www.w3.org/2000/svg" xmlns:xlink="http://www.w3.org/1999/xlink" id="logo" x="0px" y="0px" viewBox="0 0 1728 635.4" style="enable-background:new 0 0 1728 635.4;" xml:space="preserve"><style type="text/css">	.st0{fill:#5AEBD2;}	.st1{fill:#0A196E;}	.st2{fill:#239BF5;}	.st3{fill:#FFFFFF;}</style><g>	<polygon class="st0" points="140.6,462.7 468.3,140.6 551.6,301.4  "></polygon>	<polygon class="st1" points="140.6,462.6 312.6,140.5 365.1,242  "></polygon>	<polygon class="st2" points="365.1,242 140.6,462.6 397.2,304.1  "></polygon>	<polygon class="st1" points="140.6,462.7 445,396.6 479.2,462.7  "></polygon></g><g>	<path class="st3" d="M628.8,450.8l7.2-16.2c9,7.2,23.3,12.3,37,12.3c17.5,0,24.9-6.3,24.9-14.6c0-24.2-66.7-8.3-66.7-50  c0-18.1,14.4-33.5,45.2-33.5c13.5,0,27.6,3.5,37.4,9.9l-6.6,16.2c-10.1-5.9-21.2-8.8-31-8.8c-17.3,0-24.4,6.7-24.4,15.2  c0,23.9,66.6,8.3,66.6,49.6c0,18-14.6,33.4-45.4,33.4C655.6,464.3,638.1,458.8,628.8,450.8z"></path>	<path class="st3" d="M804.7,458c-4.8,3.8-12,5.8-19.2,5.8c-18.8,0-29.5-9.9-29.5-28.9v-41.2h-14.1v-16H756v-19.6h20v19.6h23v16h-23  v40.7c0,8.3,4.2,12.8,11.9,12.8c4.2,0,8.2-1.1,11.2-3.5L804.7,458z"></path>	<path class="st3" d="M890.5,376.1v19.1c-1.8-0.3-3.2-0.5-4.7-0.5c-15.2,0-24.9,9-24.9,26.5v41.5h-20V377H860v12.5  C865.8,380.5,876.2,376.1,890.5,376.1z"></path>	<path class="st3" d="M994.7,412.5v50.2h-18.9v-10.4c-4.8,7.4-14.1,11.5-26.9,11.5c-19.6,0-31.9-10.7-31.9-25.7  c0-14.3,9.6-25.5,35.6-25.5h22.1v-1.3c0-11.7-7.1-18.6-21.3-18.6c-9.6,0-19.6,3.2-26,8.5l-7.9-14.6c9.1-7.1,22.5-10.6,36.2-10.6  C980.4,376.1,994.7,387.8,994.7,412.5z M974.7,435.9V426H954c-13.6,0-17.3,5.1-17.3,11.4c0,7.2,6.1,11.9,16.4,11.9  C962.8,449.2,971.3,444.7,974.7,435.9z"></path>	<path class="st3" d="M1087.9,458c-4.8,3.8-12,5.8-19.2,5.8c-18.8,0-29.5-9.9-29.5-28.9v-41.2H1025v-16h14.1v-19.6h20v19.6h22.9v16  h-22.9v40.7c0,8.3,4.2,12.8,11.9,12.8c4.2,0,8.2-1.1,11.2-3.5L1087.9,458z"></path>	<path class="st3" d="M1201.4,426.3h-67.2c2.4,12.5,12.8,20.5,27.7,20.5c9.6,0,17.2-3,23.3-9.3l10.7,12.3c-7.7,9.1-19.7,14-34.5,14  c-28.7,0-47.3-18.4-47.3-43.9s18.8-43.8,44.3-43.8c25,0,43.3,17.5,43.3,44.3C1201.7,421.9,1201.5,424.3,1201.4,426.3z M1134,412.9  h48.6c-1.6-12.3-11.1-20.8-24.2-20.8C1145.4,392.1,1135.9,400.4,1134,412.9z"></path>	<path class="st3" d="M1318.3,377v72.6c0,31.1-16.2,45.2-46.2,45.2c-16,0-31.9-4.2-41.7-12.2l9-15.1c7.5,6.3,19.7,10.3,31.6,10.3  c18.9,0,27.3-8.7,27.3-26v-4.5c-7.1,7.7-17.2,11.4-28.7,11.4c-24.5,0-43.3-16.7-43.3-41.5c0-24.9,18.8-41.2,43.3-41.2  c12,0,22.6,3.8,29.7,12.3V377H1318.3z M1298.6,417.3c0-14.4-10.9-24.2-26-24.2c-15.2,0-26.1,9.8-26.1,24.2  c0,14.6,10.9,24.5,26.1,24.5C1287.7,441.8,1298.6,431.9,1298.6,417.3z"></path>	<path class="st3" d="M1443.4,377l-40.1,92.5c-7.9,19.4-18.8,25.3-33,25.3c-8.5,0-17.5-2.9-22.9-7.9l8-14.8  c3.8,3.7,9.3,5.9,14.8,5.9c7.1,0,11.2-3.4,15.1-11.9l1.4-3.4l-37.4-86h20.8L1397,440l27.1-63.3h19.3V377z"></path></g><g>	<path class="st3" d="M942.7,173.7v140.6H910l-62-74.9v74.9h-39V173.7h32.7l62,74.9v-74.9L942.7,173.7L942.7,173.7z"></path>	<path class="st3" d="M973.6,243.9c0-42.8,32.7-73.1,77.3-73.1c25.9,0,46.8,9.4,60.4,26.5l-25.3,22.9c-8.8-10.6-19.7-16.5-33.1-16.5  c-23.1,0-39.2,16.1-39.2,40.2s16.1,40.2,39.2,40.2c13.5,0,24.3-5.8,33.1-16.5l25.3,22.9c-13.7,17.1-34.5,26.5-60.4,26.5  C1006.3,317,973.6,286.7,973.6,243.9z"></path>	<path class="st3" d="M1128.8,243.9c0-42.2,33.1-73.1,78.1-73.1s78.1,30.9,78.1,73.1s-33.1,73.1-78.1,73.1  S1128.8,286.1,1128.8,243.9z M1244.9,243.9c0-24.3-16.7-40.2-37.9-40.2c-21.3,0-38,15.9-38,40.2s16.7,40.2,38,40.2  C1228.2,284.1,1244.9,268.2,1244.9,243.9z"></path>	<path class="st3" d="M1377.4,276.9h-21.7v37.3H1316V173.7h64.3c38.4,0,62.4,19.9,62.4,52c0,20.7-10,35.9-27.5,44.4l30.3,44.2h-42.6  L1377.4,276.9z M1377.8,205h-22.1v41.2h22.1c16.5,0,24.7-7.6,24.7-20.5C1402.5,212.6,1394.3,205,1377.8,205z"></path>	<path class="st3" d="M1587.4,283.5v30.7h-112.8V173.7h110.2v30.7H1514v23.7h62.4v29.7H1514v25.7H1587.4z"></path>	<polygon class="st3" points="725.4,173.7 686.2,173.7 624.2,314.2 670.5,300 705.5,212.6 746.3,314.2 787.6,314.2  "></polygon></g></svg>