<svg xmlns="http://www.w3.org/2000/svg" width="1859" height="425" viewBox="0 0 1859 425" fill="none"><g clip-path="url(#clip0_121_125)"><path d="M477.33 327.3V103.5H581.23C607.03 103.5 626.53 110.1 639.73 123.3C649.91 133.5 655 146.4 655 162C655 183.1 645.2 199.2 625.6 210.3C639.5 215.6 649.9 222.6 656.9 231.2C663.9 239.8 667.4 251.4 667.4 265.9C667.4 285.9 659.9 301.2 645 311.6C630.1 322 609.6 327.3 583.6 327.3H477.33ZM525.23 194H570.63C594.33 194 606.13 185.9 606.13 169.7C606.13 162.2 603.33 156.5 597.83 152.6C592.33 148.7 584.33 146.7 573.83 146.7H525.23V194ZM525.23 284.1H583.73C606.93 284.1 618.53 275.8 618.53 259.2C618.53 243 606.397 234.9 582.13 234.9H525.23V284.1Z" fill="white"></path><path d="M705.23 327.3V142.5C705.243 129.614 710.368 117.261 719.479 108.149C728.591 99.0377 740.945 93.9131 753.83 93.8999V93.8999V327.3H705.23Z" fill="white"></path><path d="M856.43 330.5C838.13 330.5 823.83 324.9 813.63 313.6C803.43 302.3 798.33 286.7 798.33 266.9V204.5C798.343 191.614 803.468 179.261 812.579 170.149C821.691 161.038 834.045 155.913 846.93 155.9V155.9V251.5C846.93 262.8 849.53 271.4 854.63 277.4C859.73 283.4 867.03 286.4 876.33 286.4C885.63 286.4 893.13 283.4 898.53 277.4C903.93 271.4 906.73 262.8 906.73 251.5V204.5C906.743 191.614 911.868 179.261 920.979 170.149C930.091 161.038 942.445 155.913 955.33 155.9V155.9V327.3H906.73V303C892.33 321.3 875.63 330.5 856.43 330.5Z" fill="white"></path><path d="M1079.93 331.1C1053.93 331.1 1032.5 322.833 1015.63 306.3C998.83 289.8 990.33 268.3 990.33 241.9C990.33 217 998.33 195.9 1014.33 178.6C1030.33 161.3 1050.56 152.666 1075.03 152.7C1102.13 152.7 1122.73 161.7 1137.03 179.6C1151.33 197.5 1158.43 219.6 1158.43 245.8C1158.43 248.4 1158.23 252.6 1157.83 258.6H1038.63C1040.93 269.5 1045.73 277.8 1053.03 283.5C1060.23 289.3 1069.43 292.1 1080.53 292.1C1086.9 292.103 1093.22 291.02 1099.23 288.9C1116.03 282.9 1134.73 285.8 1148.13 297.6L1149.93 299.2C1132.64 320.5 1109.31 331.133 1079.93 331.1ZM1038 228.2H1111.2C1109.7 217.1 1105.8 208.3 1099.5 201.7C1093.2 195.1 1085.1 191.8 1075 191.8C1065.2 191.8 1057 195.1 1050.5 201.6C1044 208.1 1039.93 216.9 1038 228.2Z" fill="white"></path><path d="M1193 327.3V289.9L1316.1 146.7H1196.9C1196.9 135.243 1201.45 124.257 1209.56 116.156C1217.66 108.055 1228.64 103.503 1240.1 103.5H1379.5V140.9L1256.4 284.1H1336.3C1347.76 284.103 1358.74 288.655 1366.84 296.756C1374.95 304.857 1379.5 315.843 1379.5 327.3H1193V327.3Z" fill="white"></path><path d="M1421.93 137.1V93.8999H1473.13V137.1H1421.93ZM1423.23 327.3V155.9H1471.83V327.3H1423.23Z" fill="white"></path><path d="M1519.83 327.3V142.5C1519.84 129.614 1524.97 117.261 1534.08 108.149C1543.19 99.0377 1555.54 93.9131 1568.43 93.8999V93.8999V327.3H1519.83Z" fill="white"></path><path d="M1616.33 327.3V142.5C1616.34 129.614 1621.47 117.261 1630.58 108.149C1639.69 99.0377 1652.04 93.9131 1664.93 93.8999V93.8999V327.3H1616.33Z" fill="white"></path><path d="M1759.23 330.5C1742.43 330.5 1728.33 325.8 1717.23 316.4C1706.13 307 1700.43 294 1700.43 277.4C1700.43 259.3 1706.63 245.6 1719.13 236.5C1731.63 227.4 1748.43 222.8 1769.53 222.8C1783.79 222.782 1797.95 225.148 1811.43 229.8V226.9C1811.43 206 1799.16 195.567 1774.63 195.6C1759.93 195.6 1744.13 198.7 1727.33 204.9C1720.03 182.7 1734.43 159 1757.53 155.8C1765.51 154.676 1773.57 154.108 1781.63 154.1C1807.43 154.1 1826.73 160.5 1839.53 173.3C1851.93 185.7 1858.03 203.9 1858.03 228V327.4H1811.03V308.9C1798 323.2 1780.73 330.5 1759.23 330.5ZM1773.93 296.9C1785.23 296.9 1794.43 294.1 1801.43 288.4C1804.76 285.885 1807.45 282.616 1809.28 278.862C1811.1 275.107 1812.01 270.974 1811.93 266.8V258.2C1802.73 253.9 1792.43 251.8 1780.93 251.8C1770.23 251.8 1762.03 253.9 1756.13 258C1750.23 262.1 1747.33 268.2 1747.33 276.1C1747.33 282.5 1749.73 287.6 1754.73 291.3C1759.73 295 1766 296.9 1773.93 296.9Z" fill="white"></path><path d="M257.43 204.8C289.33 185.2 305.264 155.867 305.23 116.8C305.23 81.9001 292.764 53.7001 267.83 32.2001C242.897 10.7001 210.13 -0.0332559 169.53 7.73994e-05H0.000192165V53.3001C0.000192165 71.5001 2.60019 87.9001 20.3002 92.3001C23.1043 93.0428 26.0005 93.3796 28.9002 93.3001C43.8002 92.3001 140.1 65.6001 166.6 64.1001C169.647 63.941 172.671 64.7055 175.276 66.2935C177.881 67.8815 179.946 70.219 181.2 73.0001C183.9 78.9001 188 86.2001 192.8 87.8001C201.1 90.6001 242.7 85.9001 247.7 103.9C252.5 121.4 245.3 141.3 236 146.4L227.1 161.9L218.3 151.8C218.03 151.784 217.758 151.818 217.5 151.9L209.2 166.3L200.4 156.2C199.9 156.2 199.8 156.3 199.3 156.3L190.8 171.2L181.8 160.9C181.562 160.884 181.324 160.918 181.1 161L163.8 166.4C156.6 168.9 151.7 171.3 151.4 173.3C151.1 175.1 154.4 179.3 159.7 184.6L172.3 196.5C172.5 196.8 172.6 196.9 172.8 197.2L189.4 196.3L185.8 208.7C186.2 209.2 186.4 209.4 186.8 209.9L203.5 209L199.9 221.4C200.3 221.9 200.5 222.2 200.9 222.7L217.7 221.8L213.8 235.5C214.734 236.492 215.419 237.692 215.8 239C217.4 247.8 210.6 259.8 187.3 257.8C164 255.8 168.1 238.1 116.3 253.7C68.0002 268.3 37.2002 289.3 16.7002 331.9C-1.46981 369.4 0.000192165 425 0.000192165 425H179.8C223.2 425 257.3 418.5 282.1 396.8C306.9 375.1 319.4 345.1 319.4 306.5C319.42 260.4 298.764 226.5 257.43 204.8Z" fill="#1788FB"></path></g><defs><clipPath id="clip0_121_125"><rect width="1858.03" height="425" fill="white"></rect></clipPath></defs></svg>