<svg xmlns="http://www.w3.org/2000/svg" width="32" height="32" viewBox="0 0 32 32"><path id="&#x424;&#x438;&#x433;&#x443;&#x440;&#x430;_318_1" data-name="&#x424;&#x438;&#x433;&#x443;&#x440;&#x430; 318 1" class="cls-1" d="M26.139,11.774s-7.013,4.794-8.257,6.312-2.064.7-2.064,0.7-5.9-4.85-8.257-7.013a3.473,3.473,0,0,0-1.653-.914c-0.56-1.12-.9-1.814-0.9-1.814-0.456-3.494,9.075,2.882,11.5,4.555C18.929,11.928,28.46,5.552,28,9.046c0,0-.416.848-1.084,2.18A6.211,6.211,0,0,0,26.139,11.774ZM8.919,14.94c1.394,2.175,7.664,6.471,7.664,6.471a3.37,3.37,0,0,0,1.277-1.257c0.835-1.125,7.664-6.471,7.664-6.471A2.66,2.66,0,0,1,26,13.28C23.408,17.448,17.615,26.516,16.584,26c-1.056.53-7.107-8.993-9.6-13.011A6.193,6.193,0,0,1,8.919,14.94Z"></path></svg>