<svg xmlns="http://www.w3.org/2000/svg" xmlns:xlink="http://www.w3.org/1999/xlink" id="&#x421;&#x43B;&#x43E;&#x439;_1" x="0px" y="0px" viewBox="0 0 2.8 2.2" style="enable-background:new 0 0 2.8 2.2;" xml:space="preserve"><style type="text/css">	.st0{fill:#140A2F;}	.st1{fill:#FFFFFF;}	.st2{fill:#02C4F8;}</style><polygon class="st0" points="0,2 0.2,0.3 1.7,0 2.5,0.3 2.7,1.8 "></polygon><rect x="0.7" y="0.7" class="st1" width="1.4" height="1.4"></rect><path class="st2" d="M2.2,0.5H0.6v1.6h1.6V0.5z M1.1,1.8H0.9V1.2h0.2V1.8z M1,1C0.9,1,0.9,1,0.9,0.9s0-0.1,0.1-0.1 c0.1,0,0.1,0,0.1,0.1S1.1,1,1,1z M1.9,1.8H1.7V1.4c0-0.1-0.1-0.1-0.1-0.1c0,0-0.1,0-0.1,0.1c0,0,0,0.3,0,0.3H1.3V1.2h0.2v0.1 c0-0.1,0.1-0.1,0.2-0.1s0.2,0.1,0.2,0.3L1.9,1.8L1.9,1.8z"></path></svg>