<svg xmlns="http://www.w3.org/2000/svg" xmlns:xlink="http://www.w3.org/1999/xlink" id="Layer_1" x="0px" y="0px" viewBox="0 0 185.8 63.2" style="enable-background:new 0 0 185.8 63.2;" xml:space="preserve"><style type="text/css">	.st0{fill:#8553F2;}	.st1{fill:#FFFFFF;}</style><path class="st0" d="M43,25.4c-0.7-0.4-1.6-0.4-2.3,0l-5.2,3.1l-3.5,2l-5.2,3.1c-0.7,0.4-1.6,0.4-2.3,0l-4.2-2.4 c-0.7-0.4-1.1-1.2-1.1-2v-4.8c0-0.8,0.4-1.6,1.1-2l4.1-2.4c0.7-0.4,1.6-0.4,2.3,0l4.1,2.4c0.7,0.4,1.1,1.2,1.1,2v3.1l3.5-2.1v-3.1 c0-0.8-0.4-1.6-1.1-2l-7.6-4.5c-0.7-0.4-1.6-0.4-2.3,0l-7.7,4.5c-0.7,0.4-1.2,1.1-1.1,2v9c0,0.8,0.4,1.6,1.1,2l7.7,4.5 c0.7,0.4,1.6,0.4,2.3,0l5.2-3l3.5-2.1l5.2-3c0.7-0.4,1.6-0.4,2.3,0l4.1,2.4c0.7,0.4,1.1,1.2,1.1,2v4.8c0,0.8-0.4,1.6-1.1,2L43,43.1 c-0.7,0.4-1.6,0.4-2.3,0l-4.1-2.4c-0.7-0.4-1.1-1.2-1.1-2v-3.1l-3.5,2.1v3.1c0,0.8,0.4,1.6,1.1,2l7.7,4.5c0.7,0.4,1.6,0.4,2.3,0 l7.7-4.5c0.7-0.4,1.1-1.2,1.1-2v-9c0-0.8-0.4-1.6-1.1-2L43,25.4z"></path><path class="st1" d="M66,44.7v-7.5c1,1.1,2.5,1.7,4,1.6c4.4,0,7.4-3.1,7.4-7.8s-2.7-7.8-7-7.8c-1.7-0.1-3.3,0.6-4.4,1.9v-1.6h-4.2 v21.2H66z M69.5,35.2c-2.3,0-3.8-1.7-3.8-4.2c0-2.5,1.5-4.2,3.8-4.2c2.2,0,3.7,1.7,3.7,4.2C73.3,33.5,71.7,35.2,69.5,35.2z"></path><path class="st1" d="M86.9,38.8c4.3-0.1,7.7-3.7,7.6-8c-0.1-4.3-3.7-7.7-8-7.6c-4.2,0.1-7.6,3.6-7.6,7.8c-0.1,4.2,3.3,7.7,7.5,7.8 C86.6,38.8,86.8,38.8,86.9,38.8z M86.9,35.2c-2.3,0-3.8-1.7-3.8-4.2c0-2.5,1.5-4.2,3.8-4.2c2.3,0,3.8,1.7,3.8,4.2 C90.8,33.5,89.2,35.2,86.9,35.2z"></path><path class="st1" d="M101.7,38.6V16.9h-4.2v21.7H101.7z"></path><path class="st1" d="M114.4,23.5l-3.2,9.8l-3.2-9.8h-4.3l5.5,15l-2.2,6.2h4l2.1-6.2l5.5-15.1L114.4,23.5z"></path><path class="st1" d="M130.5,25c-1.1-1.2-2.6-1.8-4.2-1.7c-4.4,0-7.1,3.1-7.1,7.8s2.7,7.8,7.2,7.8c1.6,0.1,3.1-0.6,4.2-1.8v2 c0.1,1.2-0.8,2.3-2.1,2.4c-0.1,0-0.1,0-0.2,0h-7v3.3h7.7c3.4,0,5.7-2.1,5.7-5.2v-16h-4.2L130.5,25z M127,35.2 c-2.2,0-3.7-1.7-3.7-4.2s1.5-4.2,3.7-4.2c2.3,0,3.8,1.7,3.8,4.2S129.3,35.2,127,35.2z"></path><path class="st1" d="M145.3,38.8c4.3-0.1,7.7-3.7,7.6-8c-0.1-4.3-3.7-7.7-8-7.6c-4.2,0.1-7.6,3.6-7.6,7.8c-0.1,4.2,3.3,7.7,7.5,7.8 C145,38.8,145.2,38.8,145.3,38.8z M145.3,35.2c-2.3,0-3.8-1.7-3.8-4.2c0-2.5,1.5-4.2,3.8-4.2s3.8,1.7,3.8,4.2 C149.2,33.5,147.6,35.2,145.3,35.2z"></path><path class="st1" d="M159.9,38.6v-8.3c-0.1-1.7,1.2-3.2,2.9-3.4c0.1,0,0.2,0,0.2,0c1.6,0,2.9,1.3,2.9,2.9c0,0.1,0,0.2,0,0.3v8.5h4.2 v-9.4c0-3.5-2.2-5.9-5.7-5.9c-1.9-0.1-3.6,0.8-4.6,2.3v-2.1h-4.2v15.1H159.9z"></path></svg>