<svg xmlns="http://www.w3.org/2000/svg" width="200" height="44" viewBox="0 0 200 44" fill="none"><path d="M65.9173 15.0547H50.2529V28.1456H52.8637V23.9565H65.9173C68.5281 23.9565 68.5281 21.6002 68.5281 21.6002V17.411C68.5281 17.411 68.5281 15.0547 65.9173 15.0547ZM65.9173 17.411V21.6002H52.8637V17.411H65.9173Z" fill="white"></path><path d="M88.889 15.0547H75.835C73.2242 15.0547 73.2242 17.411 73.2242 17.411V25.7893C73.2242 25.7893 73.2242 28.1456 75.835 28.1456H88.889C91.4998 28.1456 91.4998 25.7893 91.4998 25.7893V17.411C91.4998 17.411 91.4998 15.0547 88.889 15.0547ZM88.889 17.411V25.7893H75.835V17.411H88.889Z" fill="white"></path><path d="M111.613 25.7893H99.3422V15.0547H96.7314V28.1456H111.613V25.7893Z" fill="white"></path><path d="M130.931 15.0547H127.798L121.793 22.1238L115.788 15.0547H112.655L120.488 24.2183V28.1456H123.098V24.2183L130.931 15.0547Z" fill="white"></path><path d="M150.258 15.0547H134.593V28.1456H137.204V23.9565H150.258C152.868 23.9565 152.868 21.6002 152.868 21.6002V17.411C152.868 17.411 152.868 15.0547 150.258 15.0547ZM150.258 17.411V21.6002H137.204V17.411H150.258Z" fill="white"></path><path d="M173.491 15.0547H159.915C157.565 15.0547 157.565 17.411 157.565 17.411V28.1456H160.176V23.9565H173.23V28.1456H175.84V17.411C175.84 17.411 175.84 15.0547 173.491 15.0547ZM160.176 17.411H173.23V21.6002H160.176V17.411Z" fill="white"></path><path d="M181.072 15.0547V28.1456H196.997C199.347 28.1456 199.347 25.7893 199.347 25.7893V17.411C199.347 17.411 199.347 15.0547 196.997 15.0547H181.072ZM196.736 25.7893H183.683V17.411H196.736V25.7893Z" fill="white"></path><path fill-rule="evenodd" clip-rule="evenodd" d="M49.6001 14.4004H65.9173C66.6713 14.4004 67.2801 14.5716 67.7625 14.8618C68.2441 15.1516 68.5637 15.5382 68.7725 15.9152C68.9793 16.2885 69.0797 16.6551 69.1293 16.924C69.1541 17.0597 69.1673 17.1745 69.1737 17.2583C69.1769 17.3003 69.1789 17.3348 69.1797 17.3606C69.1805 17.3736 69.1805 17.3843 69.1809 17.3928V17.4038V17.408V17.4106C69.1809 17.4106 69.1809 17.4113 68.5281 17.4113C68.5281 17.4113 68.5281 15.055 65.9173 15.055H50.2529V28.1458H52.8637V23.9568H65.9173C68.5281 23.9568 68.5281 21.6004 68.5281 21.6004C69.1809 21.6004 69.1809 21.6012 69.1809 21.6012V21.6037V21.6079V21.6189C69.1805 21.6274 69.1805 21.6382 69.1797 21.6511C69.1789 21.6769 69.1769 21.7114 69.1737 21.7534C69.1673 21.8372 69.1541 21.952 69.1293 22.0878C69.0797 22.3566 68.9793 22.7232 68.7725 23.0964C68.5637 23.4735 68.2441 23.8602 67.7625 24.1498C67.2801 24.4401 66.6713 24.6113 65.9173 24.6113H53.5161V28.8004H49.6001V14.4004ZM68.5281 21.6004V17.4113H69.1809V21.6004H68.5281ZM65.2649 20.9458V18.0658H53.5161V20.9458H65.2649ZM75.8353 14.4004H88.8893C89.6429 14.4004 90.2521 14.5716 90.7345 14.8618C91.2157 15.1516 91.5353 15.5382 91.7441 15.9152C91.9509 16.2885 92.0513 16.6551 92.1009 16.924C92.1261 17.0597 92.1389 17.1745 92.1457 17.2583C92.1489 17.3003 92.1505 17.3348 92.1517 17.3606C92.1521 17.3736 92.1525 17.3843 92.1525 17.3928V17.4038V17.408V17.4098V17.4106C92.1525 17.4106 92.1525 17.4113 91.5001 17.4113C91.5001 17.4113 91.5001 15.055 88.8893 15.055H75.8353C73.2245 15.055 73.2245 17.4113 73.2245 17.4113C72.5717 17.4113 72.5717 17.4106 72.5717 17.4106V17.408V17.4038L72.5721 17.3928C72.5721 17.3843 72.5725 17.3736 72.5729 17.3606C72.5737 17.3348 72.5757 17.3003 72.5789 17.2583C72.5857 17.1745 72.5985 17.0597 72.6237 16.924C72.6733 16.6551 72.7737 16.2885 72.9805 15.9152C73.1893 15.5382 73.5085 15.1516 73.9901 14.8618C74.4725 14.5716 75.0817 14.4004 75.8353 14.4004ZM73.2245 17.4113H72.5717V25.7895H73.2245C72.5717 25.7895 72.5717 25.7902 72.5717 25.7902V25.7928V25.797L72.5721 25.808C72.5721 25.8165 72.5725 25.8272 72.5729 25.8402C72.5737 25.866 72.5757 25.9005 72.5789 25.9425C72.5857 26.0263 72.5985 26.1411 72.6237 26.2768C72.6733 26.5457 72.7737 26.9123 72.9805 27.2856C73.1893 27.6626 73.5085 28.0492 73.9901 28.339C74.4725 28.6292 75.0817 28.8004 75.8353 28.8004H88.8893C89.6429 28.8004 90.2521 28.6292 90.7345 28.339C91.2157 28.0492 91.5353 27.6626 91.7441 27.2856C91.9509 26.9123 92.0513 26.5457 92.1009 26.2768C92.1261 26.1411 92.1389 26.0263 92.1457 25.9425C92.1489 25.9005 92.1505 25.866 92.1517 25.8402C92.1517 25.8346 92.1521 25.8294 92.1521 25.8246C92.1521 25.8184 92.1525 25.8128 92.1525 25.808V25.797V25.7928V25.791V25.7902C92.1525 25.7902 92.1525 25.7895 91.5001 25.7895H92.1525V17.4113H91.5001V25.7895C91.5001 25.7895 91.5001 28.1458 88.8893 28.1458H75.8353C73.2245 28.1458 73.2245 25.7895 73.2245 25.7895V17.4113ZM88.2365 25.135H76.4881V18.0658H88.2365V25.135ZM112.266 25.135V28.8004H96.0789V14.4004H99.9953V25.135H112.266ZM111.613 25.7895V28.1458H96.7317V15.055H99.3425V25.7895H111.613ZM132.35 14.4004L123.751 24.4607V28.8004H119.835V24.4607L111.237 14.4004H116.09L121.793 21.1147L127.497 14.4004H132.35ZM121.793 22.124L115.789 15.055H112.655L120.488 24.2186V28.1458H123.099V24.2186L130.931 15.055H127.798L121.793 22.124ZM133.941 14.4004H150.258C151.011 14.4004 151.621 14.5716 152.103 14.8618C152.585 15.1516 152.904 15.5382 153.113 15.9152C153.319 16.2885 153.42 16.6551 153.469 16.924C153.495 17.0597 153.507 17.1745 153.514 17.2583C153.517 17.3003 153.519 17.3348 153.52 17.3606C153.521 17.3684 153.521 17.3753 153.521 17.3815C153.521 17.3856 153.521 17.3894 153.521 17.3928L153.521 17.4038V17.408V17.4098V17.4106C153.521 17.4106 153.521 17.4113 152.869 17.4113C152.869 17.4113 152.869 15.055 150.258 15.055H134.593V28.1458H137.204V23.9568H150.258C152.869 23.9568 152.869 21.6004 152.869 21.6004C153.521 21.6004 153.521 21.6012 153.521 21.6012V21.6019V21.6037V21.6079L153.521 21.6189C153.521 21.6274 153.521 21.6382 153.52 21.6511C153.519 21.6769 153.517 21.7114 153.514 21.7534C153.507 21.8372 153.495 21.952 153.469 22.0878C153.42 22.3566 153.319 22.7232 153.113 23.0964C152.904 23.4735 152.585 23.8602 152.103 24.1498C151.621 24.4401 151.011 24.6113 150.258 24.6113H137.857V28.8004H133.941V14.4004ZM152.869 21.6004V17.4113H153.521V21.6004H152.869ZM149.605 20.9458V18.0658H137.857V20.9458H149.605ZM156.912 28.8004V17.4113H157.565V28.1458H160.176V23.9568H173.229V28.1458H175.84V17.4113H176.493V28.8004H172.577V24.6113H160.828V28.8004H156.912ZM175.84 17.4113C175.84 17.4113 175.84 15.055 173.491 15.055H159.915C157.565 15.055 157.565 17.4113 157.565 17.4113C156.912 17.4113 156.912 17.4106 156.912 17.4106V17.4099V17.4083V17.4044V17.394C156.913 17.3859 156.913 17.3755 156.913 17.363C156.914 17.3381 156.915 17.3044 156.919 17.2634C156.924 17.1816 156.936 17.069 156.958 16.9355C157.002 16.6718 157.091 16.31 157.275 15.9404C157.461 15.5682 157.749 15.1761 158.194 14.8785C158.643 14.5782 159.213 14.4004 159.915 14.4004H173.491C174.192 14.4004 174.762 14.5782 175.211 14.8785C175.656 15.1761 175.945 15.5682 176.131 15.9404C176.315 16.31 176.403 16.6718 176.447 16.9355C176.47 17.069 176.481 17.1816 176.487 17.2634C176.49 17.3044 176.491 17.3381 176.492 17.363C176.493 17.3755 176.493 17.3859 176.493 17.394V17.4044V17.4083V17.4099V17.4106C176.493 17.4106 176.493 17.4113 175.84 17.4113ZM172.577 18.0658H160.828V20.9458H172.577V18.0658ZM180.419 14.4004H196.998C197.699 14.4004 198.269 14.5782 198.718 14.8785C199.163 15.1761 199.452 15.5682 199.637 15.9404C199.822 16.31 199.911 16.6718 199.955 16.9355C199.977 17.069 199.988 17.1816 199.994 17.2634C199.997 17.3044 199.999 17.3381 199.999 17.363C200 17.3755 200 17.3859 200 17.394V17.4044V17.4083V17.4099V17.4106C200 17.4106 200 17.4113 199.347 17.4113C199.347 17.4113 199.347 15.055 196.998 15.055H181.072V28.1458H196.998C199.347 28.1458 199.347 25.7895 199.347 25.7895C200 25.7895 200 25.7902 200 25.7902V25.7909V25.7925V25.7964V25.8068C200 25.8149 200 25.8253 199.999 25.8378C199.999 25.8627 199.997 25.8964 199.994 25.9374C199.988 26.0192 199.977 26.1318 199.955 26.2653C199.911 26.529 199.822 26.8908 199.637 27.2604C199.452 27.6326 199.163 28.0247 198.718 28.3223C198.269 28.6226 197.699 28.8004 196.998 28.8004H180.419V14.4004ZM199.347 25.7895V17.4113H200V25.7895H199.347ZM184.335 25.135H196.084V18.0658H184.335V25.135ZM65.9173 17.4113H52.8637V21.6004H65.9173V17.4113ZM88.8893 17.4113H75.8353V25.7895H88.8893V17.4113ZM150.258 17.4113H137.204V21.6004H150.258V17.4113ZM160.176 17.4113V21.6004H173.229V17.4113H160.176ZM196.737 25.7895V17.4113H183.683V25.7895H196.737Z" fill="white"></path><path d="M37.6 32.3853V10.7852L18.8 0L0 10.7852V32.3853L6.23696 35.9606V25.2345V14.3902L18.8 7.15076L31.3631 14.3902V28.8099L18.8 36.0197V43.2L37.6 32.3853Z" fill="url(#paint0_linear_6_1741)"></path><path d="M27.4722 16.606L18.7999 11.6123L10.0978 16.606V18.8222V38.206L14.9389 40.9542V29.3415V28.0709V21.5997V19.3836L18.7999 17.1675L22.6608 19.3836V23.8159L18.7999 26.032V28.0709V31.5576L27.4722 26.5935V16.606Z" fill="url(#paint1_linear_6_1741)"></path><path opacity="0.2" d="M37.6 10.7852L18.8 0L0 10.7852L6.23696 14.3902L18.8 7.15076L31.3631 14.3902L37.6 10.7852Z" fill="white"></path><path opacity="0.2" d="M18.7999 11.6123L10.0978 16.606L14.9389 19.3836L18.7999 17.1675L22.6608 19.3836L27.4722 16.606L18.7999 11.6123Z" fill="white"></path><defs><linearGradient id="paint0_linear_6_1741" x1="28.1964" y1="5.39896" x2="9.54392" y2="37.8715" gradientUnits="userSpaceOnUse"><stop stop-color="#4E4AFF"></stop><stop offset="1" stop-color="#A873FF"></stop></linearGradient><linearGradient id="paint1_linear_6_1741" x1="23.141" y1="14.11" x2="9.50514" y2="37.849" gradientUnits="userSpaceOnUse"><stop stop-color="#4E4AFF"></stop><stop offset="1" stop-color="#A873FF"></stop></linearGradient></defs></svg>