<svg xmlns="http://www.w3.org/2000/svg" width="237" height="84" viewBox="0 0 237 84" fill="none"><path d="M41.7435 0C43.9142 2.13098 46.0513 4.29562 48.2051 6.44132C46.0449 8.59755 43.8869 10.7559 41.7268 12.9142C39.5814 10.7475 37.4127 8.60176 35.261 6.44343C37.4254 4.30193 39.5497 2.10784 41.7435 0Z" fill="url(#paint0_linear)"></path><path d="M33.2504 10.1437C35.1853 11.9844 37.0422 13.9282 38.9665 15.7815C38.996 24.6357 38.9687 33.5004 38.9813 42.3588C37.076 42.3651 35.1705 42.3588 33.2651 42.3609C33.263 34.2955 33.263 26.2323 33.2651 18.1691C31.0292 20.4116 28.7912 22.6519 26.5574 24.8986C25.2141 23.5712 23.8709 22.2417 22.5382 20.9017C26.0942 17.3255 29.6881 13.7115 33.2504 10.1437Z" fill="url(#paint1_linear)"></path><path d="M50.2894 10.0722C53.8686 13.6799 57.4477 17.2898 61.0227 20.9038C59.7047 22.2396 58.3782 23.5691 57.056 24.9028C54.8012 22.6561 52.5484 20.4095 50.2915 18.167C50.2936 22.4984 50.2957 26.8276 50.2915 31.159C48.3861 31.159 46.4828 31.1611 44.5796 31.159C44.5732 26.266 44.5859 21.375 44.5733 16.4841C44.5985 16.238 44.508 15.8256 44.7248 15.6531C46.4323 13.9345 48.165 12.2011 49.8788 10.4845C50.0157 10.3478 50.1525 10.2089 50.2894 10.0722Z" fill="url(#paint2_linear)"></path><path d="M20.9002 22.4878C22.2518 23.8258 23.5825 25.1826 24.9215 26.531C22.6708 28.7756 20.4097 31.0118 18.1653 33.2626C22.4582 33.2626 26.7532 33.2605 31.0461 33.2626C31.0482 35.1559 31.0504 37.0513 31.0461 38.9446C26.0016 38.9467 20.955 38.9341 15.9105 38.9509C13.984 37.0681 12.087 35.1559 10.1753 33.2606C13.7461 29.6675 17.321 26.0745 20.9002 22.4878Z" fill="url(#paint3_linear)"></path><path d="M62.6585 22.4921C66.2398 26.0745 69.8126 29.6717 73.3855 33.2626C71.5138 35.1307 69.6421 37.0408 67.7599 38.892C67.4083 38.9908 66.9956 38.9319 66.6293 38.9446C58.113 38.9404 49.5967 38.9446 41.0825 38.9425C41.0783 37.0492 41.0783 35.158 41.0825 33.2648C49.1861 33.2605 57.2897 33.2626 65.3934 33.2626C63.1469 31.0118 60.8879 28.7735 58.633 26.5289C59.972 25.1826 61.3048 23.8237 62.6585 22.4921Z" fill="url(#paint4_linear)"></path><path d="M77.1141 35.2169C79.2764 37.3753 81.4387 39.542 83.5714 41.7298C81.4387 43.9028 79.2659 46.0401 77.1163 48.1964C74.9582 46.0422 72.8002 43.8881 70.6443 41.7298C72.8023 39.563 74.9561 37.3837 77.1141 35.2169Z" fill="url(#paint5_linear)"></path><path d="M6.45722 35.2106C8.61314 37.3647 10.7712 39.5189 12.925 41.6751C10.7691 43.8355 8.60681 45.9917 6.44879 48.1501C4.29918 45.9938 2.14329 43.846 0 41.6856C1.97696 39.6535 4.01078 37.6698 6.00879 35.6566C6.15828 35.5093 6.30774 35.36 6.45722 35.2106Z" fill="url(#paint6_linear)"></path><path d="M44.59 41.1618C46.487 41.1345 48.3924 41.1597 50.2915 41.1513C50.2957 49.2103 50.2936 57.2693 50.2915 65.3283C52.5611 63.0837 54.8012 60.8139 57.0582 58.5588C58.3783 59.9073 59.7047 61.2536 61.0227 62.6083C57.4498 66.1887 53.8664 69.7544 50.2957 73.3348C48.4387 71.4899 46.586 69.6471 44.729 67.8043C44.508 67.6339 44.5985 67.2216 44.5733 66.9755C44.5922 58.3926 44.5585 49.7404 44.59 41.1618Z" fill="url(#paint7_linear)"></path><path d="M15.7736 44.5886C24.5552 44.5402 33.5999 44.5844 42.4131 44.5676C42.4194 46.463 42.4194 48.3562 42.4131 50.2516C34.3326 50.2474 26.25 50.2516 18.1695 50.2495C20.4097 52.5088 22.694 54.726 24.9194 56.9979C23.5699 58.3316 22.2414 59.6885 20.8981 61.0285C17.3253 57.4397 13.7609 53.8425 10.1775 50.2663C12.0176 48.3688 13.8977 46.4524 15.7736 44.5886Z" fill="url(#paint8_linear)"></path><path d="M52.3969 44.5676C57.5172 44.5613 62.6375 44.5865 67.7578 44.555C69.6632 46.444 71.558 48.3478 73.4382 50.2621C69.84 53.8446 66.2525 57.4418 62.6586 61.0285C61.3133 59.6885 59.9869 58.3295 58.6373 56.9958C60.8669 54.726 63.1471 52.5046 65.3914 50.2495C61.0585 50.2516 56.7277 50.2495 52.3948 50.2495C52.3948 48.3562 52.3885 46.4609 52.3969 44.5676Z" fill="url(#paint9_linear)"></path><path d="M33.2673 52.4078C35.1706 52.4057 37.0759 52.4015 38.9792 52.4078C38.9708 57.4986 38.996 62.5894 38.9665 67.6781C37.0633 69.5209 35.2084 71.4415 33.2988 73.2759C33.1915 73.2611 33.082 73.1854 32.9704 73.0487C29.4965 69.565 26.0121 66.0877 22.5361 62.6083C23.8709 61.2536 25.2162 59.9073 26.5574 58.5567C28.7912 60.8202 31.0271 63.0795 33.2651 65.3389C33.2651 61.0285 33.261 56.7182 33.2673 52.4078Z" fill="url(#paint10_linear)"></path><path d="M41.7794 70.5159C43.9522 72.6637 46.0933 74.8473 48.2429 77.0203C46.087 79.1681 43.948 81.3307 41.7794 83.4638C39.6088 81.3307 37.4676 79.1639 35.3096 77.014C37.4676 74.8515 39.6046 72.6616 41.7794 70.5159Z" fill="url(#paint11_linear)"></path><path d="M106.23 38.5217H100.392V15.8752H92.915V11.0223H113.707V15.8752H106.23V38.5217Z" fill="#2CF492"></path><path d="M128.398 23.0792H139.321V37.3367C137.551 37.9136 135.881 38.3148 134.312 38.5406C132.755 38.7788 131.16 38.8979 129.528 38.8979C125.372 38.8979 122.195 37.6816 119.998 35.2489C117.813 32.8037 116.721 29.2988 116.721 24.7344C116.721 20.2954 117.989 16.8345 120.525 14.3516C123.074 11.8688 126.602 10.6273 131.11 10.6273C133.935 10.6273 136.659 11.1916 139.284 12.3202L137.344 16.9849C135.335 15.9818 133.244 15.4802 131.072 15.4802C128.548 15.4802 126.527 16.3266 125.008 18.0195C123.488 19.7123 122.729 21.9882 122.729 24.8473C122.729 27.8317 123.338 30.1139 124.556 31.6939C125.786 33.2614 127.569 34.0451 129.904 34.0451C131.122 34.0451 132.359 33.9197 133.615 33.6689V27.932H128.398V23.0792Z" fill="#2CF492"></path><path d="M178.759 24.5087C178.759 29.0355 177.466 32.5027 174.879 34.9103C172.305 37.3179 168.583 38.5217 163.711 38.5217H155.914V11.0223H164.558C169.053 11.0223 172.544 12.2073 175.03 14.5773C177.516 16.9473 178.759 20.2578 178.759 24.5087ZM172.695 24.6592C172.695 18.753 170.083 15.7999 164.86 15.7999H161.752V33.7065H164.257C169.882 33.7065 172.695 30.6907 172.695 24.6592Z" fill="#2CF492"></path><path d="M201.322 38.5217L199.325 31.9761H189.287L187.291 38.5217H181L190.718 10.9095H197.856L207.612 38.5217H201.322ZM197.932 27.0856C196.086 21.1544 195.044 17.8 194.805 17.0226C194.579 16.2451 194.416 15.6307 194.316 15.1792C193.901 16.7843 192.715 20.7531 190.756 27.0856H197.932Z" fill="#2CF492"></path><path d="M236.089 24.7344C236.089 29.2863 234.959 32.7849 232.699 35.2301C230.439 37.6753 227.199 38.8979 222.981 38.8979C218.762 38.8979 215.522 37.6753 213.262 35.2301C211.002 32.7849 209.872 29.2738 209.872 24.6968C209.872 20.1198 211.002 16.6276 213.262 14.2199C215.535 11.7998 218.787 10.5897 223.018 10.5897C227.25 10.5897 230.483 11.8061 232.718 14.2388C234.965 16.6714 236.089 20.17 236.089 24.7344ZM215.993 24.7344C215.993 27.8066 216.577 30.1202 217.745 31.6751C218.913 33.23 220.658 34.0075 222.981 34.0075C227.639 34.0075 229.968 30.9165 229.968 24.7344C229.968 18.5398 227.651 15.4426 223.018 15.4426C220.695 15.4426 218.944 16.2263 217.764 17.7937C216.583 19.3487 215.993 21.6622 215.993 24.7344Z" fill="#2CF492"></path><path d="M94.6665 72.7632V54.4303H96.801V70.8321H104.899V72.7632H94.6665Z" fill="white"></path><path d="M116.175 72.7632L115.76 70.8071H115.66C114.973 71.6681 114.287 72.2533 113.601 72.5626C112.923 72.8636 112.073 73.014 111.052 73.014C109.687 73.014 108.616 72.6629 107.838 71.9607C107.067 71.2585 106.682 70.2595 106.682 68.9637C106.682 66.1883 108.905 64.7337 113.35 64.5999L115.685 64.5247V63.672C115.685 62.5936 115.451 61.7994 114.982 61.2895C114.521 60.7712 113.781 60.512 112.759 60.512C111.613 60.512 110.315 60.8631 108.867 61.5654L108.227 59.9728C108.905 59.605 109.646 59.3166 110.449 59.1076C111.261 58.8986 112.073 58.7941 112.885 58.7941C114.526 58.7941 115.739 59.1578 116.526 59.885C117.321 60.6123 117.719 61.7785 117.719 63.3836V72.7632H116.175ZM111.466 71.2961C112.764 71.2961 113.781 70.9408 114.517 70.2302C115.262 69.5197 115.635 68.5249 115.635 67.2458V66.0044L113.55 66.0922C111.893 66.1507 110.696 66.4098 109.959 66.8696C109.231 67.321 108.867 68.0274 108.867 68.9888C108.867 69.7412 109.093 70.3138 109.545 70.7067C110.006 71.0997 110.646 71.2961 111.466 71.2961Z" fill="white"></path><path d="M123.984 59.0198V67.9355C123.984 69.0557 124.24 69.8917 124.75 70.4434C125.261 70.9952 126.06 71.271 127.148 71.271C128.588 71.271 129.639 70.8781 130.3 70.0923C130.97 69.3065 131.304 68.0233 131.304 66.2426V59.0198H133.389V72.7632H131.668L131.367 70.9199H131.254C130.827 71.5971 130.233 72.1154 129.471 72.4748C128.718 72.8343 127.856 73.014 126.885 73.014C125.211 73.014 123.955 72.617 123.118 71.8228C122.289 71.0286 121.875 69.7579 121.875 68.0107V59.0198H123.984Z" fill="white"></path><path d="M147.238 72.7632V63.8727C147.238 62.7524 146.982 61.9165 146.472 61.3647C145.961 60.813 145.162 60.5371 144.074 60.5371C142.634 60.5371 141.579 60.9258 140.91 61.7033C140.24 62.4808 139.905 63.764 139.905 65.553V72.7632H137.821V59.0198H139.516L139.855 60.9008H139.955C140.382 60.2236 140.981 59.7011 141.751 59.3333C142.521 58.9571 143.379 58.769 144.325 58.769C145.982 58.769 147.229 59.1703 148.066 59.9728C148.903 60.767 149.322 62.0419 149.322 63.7974V72.7632H147.238Z" fill="white"></path><path d="M159.115 73.014C157.123 73.014 155.579 72.4038 154.482 71.1833C153.394 69.9544 152.85 68.2197 152.85 65.9793C152.85 63.6804 153.403 61.9039 154.507 60.65C155.621 59.396 157.203 58.769 159.254 58.769C159.915 58.769 160.576 58.8401 161.237 58.9822C161.899 59.1243 162.418 59.2915 162.794 59.4838L162.154 61.2519C161.694 61.068 161.191 60.9175 160.647 60.8004C160.103 60.675 159.622 60.6123 159.203 60.6123C156.408 60.6123 155.01 62.393 155.01 65.9542C155.01 67.6429 155.349 68.9387 156.027 69.8415C156.713 70.7444 157.726 71.1958 159.065 71.1958C160.212 71.1958 161.388 70.9492 162.593 70.456V72.2993C161.673 72.7758 160.513 73.014 159.115 73.014Z" fill="white"></path><path d="M175.287 72.7632V63.8727C175.287 62.7524 175.032 61.9165 174.521 61.3647C174.011 60.813 173.211 60.5371 172.123 60.5371C170.675 60.5371 169.616 60.93 168.947 61.7158C168.285 62.5017 167.955 63.7891 167.955 65.578V72.7632H165.87V53.2516H167.955V59.1578C167.955 59.8683 167.921 60.4577 167.854 60.9258H167.98C168.39 60.2654 168.972 59.7471 169.725 59.3709C170.487 58.9864 171.353 58.7941 172.324 58.7941C174.007 58.7941 175.266 59.1954 176.103 59.9979C176.949 60.7921 177.372 62.0586 177.372 63.7974V72.7632H175.287Z" fill="white"></path><path d="M188.069 73.014C187.173 73.014 186.353 72.851 185.608 72.525C184.872 72.1906 184.252 71.6807 183.75 70.9952H183.599C183.7 71.7977 183.75 72.5584 183.75 73.2774V78.9327H181.666V59.0198H183.361L183.65 60.9008H183.75C184.286 60.1484 184.909 59.605 185.621 59.2706C186.332 58.9362 187.148 58.769 188.069 58.769C189.894 58.769 191.3 59.3918 192.288 60.6374C193.284 61.883 193.782 63.6302 193.782 65.879C193.782 68.1361 193.276 69.8917 192.263 71.1456C191.258 72.3912 189.86 73.014 188.069 73.014ZM187.768 60.5371C186.362 60.5371 185.345 60.9258 184.717 61.7033C184.089 62.4808 183.767 63.718 183.75 65.415V65.879C183.75 67.8101 184.072 69.1936 184.717 70.0296C185.361 70.8572 186.395 71.271 187.818 71.271C189.007 71.271 189.936 70.7903 190.605 69.829C191.283 68.8676 191.622 67.5426 191.622 65.8539C191.622 64.1402 191.283 62.8277 190.605 61.9165C189.936 60.9969 188.99 60.5371 187.768 60.5371Z" fill="white"></path><path d="M205.898 72.7632L205.484 70.8071H205.384C204.697 71.6681 204.011 72.2533 203.324 72.5626C202.646 72.8636 201.797 73.014 200.776 73.014C199.411 73.014 198.34 72.6629 197.561 71.9607C196.791 71.2585 196.406 70.2595 196.406 68.9637C196.406 66.1883 198.629 64.7337 203.073 64.5999L205.409 64.5247V63.672C205.409 62.5936 205.174 61.7994 204.706 61.2895C204.245 60.7712 203.504 60.512 202.483 60.512C201.336 60.512 200.039 60.8631 198.591 61.5654L197.951 59.9728C198.629 59.605 199.369 59.3166 200.173 59.1076C200.985 58.8986 201.797 58.7941 202.609 58.7941C204.249 58.7941 205.463 59.1578 206.25 59.885C207.045 60.6123 207.443 61.7785 207.443 63.3836V72.7632H205.898ZM201.19 71.2961C202.487 71.2961 203.504 70.9408 204.241 70.2302C204.986 69.5197 205.358 68.5249 205.358 67.2458V66.0044L203.274 66.0922C201.617 66.1507 200.42 66.4098 199.683 66.8696C198.955 67.321 198.591 68.0274 198.591 68.9888C198.591 69.7412 198.817 70.3138 199.269 70.7067C199.729 71.0997 200.37 71.2961 201.19 71.2961Z" fill="white"></path><path d="M221.116 70.9199H221.003C220.04 72.316 218.601 73.014 216.684 73.014C214.884 73.014 213.482 72.3996 212.478 71.1707C211.482 69.9418 210.983 68.1946 210.983 65.9292C210.983 63.6637 211.486 61.9039 212.49 60.65C213.495 59.396 214.893 58.769 216.684 58.769C218.55 58.769 219.982 59.4462 220.978 60.8004H221.141L221.053 59.8098L221.003 58.8443V53.2516H223.087V72.7632H221.392L221.116 70.9199ZM216.947 71.271C218.37 71.271 219.4 70.8865 220.036 70.1174C220.681 69.3399 221.003 68.0901 221.003 66.368V65.9292C221.003 63.9813 220.677 62.5936 220.024 61.766C219.379 60.93 218.345 60.512 216.922 60.512C215.7 60.512 214.763 60.9885 214.11 61.9415C213.465 62.8862 213.143 64.2238 213.143 65.9542C213.143 67.7098 213.465 69.0348 214.11 69.9293C214.754 70.8238 215.7 71.271 216.947 71.271Z" fill="white"></path><defs><linearGradient id="paint0_linear" x1="83.5714" y1="41.7319" x2="-5.87348e-07" y2="41.7319" gradientUnits="userSpaceOnUse"><stop stop-color="#44C9FD"></stop><stop offset="1" stop-color="#03FC8A"></stop></linearGradient><linearGradient id="paint1_linear" x1="83.5714" y1="41.7319" x2="-5.87348e-07" y2="41.7319" gradientUnits="userSpaceOnUse"><stop stop-color="#44C9FD"></stop><stop offset="1" stop-color="#03FC8A"></stop></linearGradient><linearGradient id="paint2_linear" x1="83.5714" y1="41.7319" x2="-5.87348e-07" y2="41.7319" gradientUnits="userSpaceOnUse"><stop stop-color="#44C9FD"></stop><stop offset="1" stop-color="#03FC8A"></stop></linearGradient><linearGradient id="paint3_linear" x1="83.5714" y1="41.7319" x2="-5.87348e-07" y2="41.7319" gradientUnits="userSpaceOnUse"><stop stop-color="#44C9FD"></stop><stop offset="1" stop-color="#03FC8A"></stop></linearGradient><linearGradient id="paint4_linear" x1="83.5714" y1="41.7319" x2="-5.87348e-07" y2="41.7319" gradientUnits="userSpaceOnUse"><stop stop-color="#44C9FD"></stop><stop offset="1" stop-color="#03FC8A"></stop></linearGradient><linearGradient id="paint5_linear" x1="83.5714" y1="41.7319" x2="-5.87348e-07" y2="41.7319" gradientUnits="userSpaceOnUse"><stop stop-color="#44C9FD"></stop><stop offset="1" stop-color="#03FC8A"></stop></linearGradient><linearGradient id="paint6_linear" x1="83.5714" y1="41.7319" x2="-5.87348e-07" y2="41.7319" gradientUnits="userSpaceOnUse"><stop stop-color="#44C9FD"></stop><stop offset="1" stop-color="#03FC8A"></stop></linearGradient><linearGradient id="paint7_linear" x1="83.5714" y1="41.7319" x2="-5.87348e-07" y2="41.7319" gradientUnits="userSpaceOnUse"><stop stop-color="#44C9FD"></stop><stop offset="1" stop-color="#03FC8A"></stop></linearGradient><linearGradient id="paint8_linear" x1="83.5714" y1="41.7319" x2="-5.87348e-07" y2="41.7319" gradientUnits="userSpaceOnUse"><stop stop-color="#44C9FD"></stop><stop offset="1" stop-color="#03FC8A"></stop></linearGradient><linearGradient id="paint9_linear" x1="83.5714" y1="41.7319" x2="-5.87348e-07" y2="41.7319" gradientUnits="userSpaceOnUse"><stop stop-color="#44C9FD"></stop><stop offset="1" stop-color="#03FC8A"></stop></linearGradient><linearGradient id="paint10_linear" x1="83.5714" y1="41.7319" x2="-5.87348e-07" y2="41.7319" gradientUnits="userSpaceOnUse"><stop stop-color="#44C9FD"></stop><stop offset="1" stop-color="#03FC8A"></stop></linearGradient><linearGradient id="paint11_linear" x1="83.5714" y1="41.7319" x2="-5.87348e-07" y2="41.7319" gradientUnits="userSpaceOnUse"><stop stop-color="#44C9FD"></stop><stop offset="1" stop-color="#03FC8A"></stop></linearGradient></defs></svg>