<svg xmlns="http://www.w3.org/2000/svg" xmlns:xlink="http://www.w3.org/1999/xlink" id="&#x421;&#x43B;&#x43E;&#x439;_1" x="0px" y="0px" viewBox="0 0 400 400" style="enable-background:new 0 0 400 400;" xml:space="preserve"><style type="text/css">	.st0{fill:#FFFFFF;}	.st1{fill-rule:evenodd;clip-rule:evenodd;fill:#229E4A;}	.st2{fill:#20813E;}	.st3{fill:#248E44;}	.st4{fill:#245E2C;}	.st5{fill-rule:evenodd;clip-rule:evenodd;fill:#1C9949;}</style><circle class="st0" cx="201.7" cy="197.7" r="148.8"></circle><path id="&#x424;&#x438;&#x433;&#x443;&#x440;&#x430;_7_1" class="st1" d="M140.6,146.9c0,55.5,44.9,100.4,100.4,100.5c48.3,0,89.8-34.4,98.7-81.9 c19.4,78-28.2,156.9-106.2,176.3S76.7,313.6,57.3,235.6S85.5,78.6,163.5,59.3c11.5-2.8,23.2-4.3,35-4.3c0.6,0,1.3,0,1.9,0 C164.1,71.1,140.6,107.1,140.6,146.9z"></path><circle id="&#x42D;&#x43B;&#x43B;&#x438;&#x43F;&#x441;_2" class="st2" cx="100" cy="189" r="34"></circle><circle id="&#x42D;&#x43B;&#x43B;&#x438;&#x43F;&#x441;_2_&#x43A;&#x43E;&#x43F;&#x438;&#x44F;_2" class="st2" cx="151" cy="230" r="17.3"></circle><circle id="&#x42D;&#x43B;&#x43B;&#x438;&#x43F;&#x441;_2_&#x43A;&#x43E;&#x43F;&#x438;&#x44F;_3" class="st2" cx="210" cy="309" r="17.3"></circle><ellipse id="&#x42D;&#x43B;&#x43B;&#x438;&#x43F;&#x441;_2_&#x43A;&#x43E;&#x43F;&#x438;&#x44F;_6" class="st2" cx="191" cy="258.3" rx="6.3" ry="6.3"></ellipse><ellipse id="&#x42D;&#x43B;&#x43B;&#x438;&#x43F;&#x441;_2_&#x43A;&#x43E;&#x43F;&#x438;&#x44F;_7" class="st3" cx="119.6" cy="274.9" rx="10.9" ry="10.9"></ellipse><circle id="&#x42D;&#x43B;&#x43B;&#x438;&#x43F;&#x441;_2_&#x43A;&#x43E;&#x43F;&#x438;&#x44F;_8" class="st3" cx="123.4" cy="104.6" r="6.1"></circle><circle id="&#x42D;&#x43B;&#x43B;&#x438;&#x43F;&#x441;_2_&#x43A;&#x43E;&#x43F;&#x438;&#x44F;_9" class="st3" cx="303.4" cy="249.6" r="6.1"></circle><circle id="&#x42D;&#x43B;&#x43B;&#x438;&#x43F;&#x441;_2_&#x43A;&#x43E;&#x43F;&#x438;&#x44F;_10" class="st3" cx="290.1" cy="270.4" r="11.9"></circle><circle id="&#x42D;&#x43B;&#x43B;&#x438;&#x43F;&#x441;_2_&#x43A;&#x43E;&#x43F;&#x438;&#x44F;" class="st4" cx="124" cy="143" r="10.5"></circle><ellipse id="&#x42D;&#x43B;&#x43B;&#x438;&#x43F;&#x441;_2_&#x43A;&#x43E;&#x43F;&#x438;&#x44F;_4" class="st4" cx="180.3" cy="243.8" rx="8.8" ry="8.8"></ellipse><circle id="&#x42D;&#x43B;&#x43B;&#x438;&#x43F;&#x441;_2_&#x43A;&#x43E;&#x43F;&#x438;&#x44F;_5" class="st4" cx="288.4" cy="246.6" r="6.9"></circle><path id="The" class="st5" d="M193.8,96.5l0.7,0.2c0.3,0.1,0.6,0.4,0.7,0.7l0.4,0.5c0.4,0.2,0.8,0.4,1.3,0.5 c0.4,0.1,0.7,0.1,1.1,0.1h3.1c0.4-0.1,0.8-0.2,1.2-0.2h1.5c0.3,0,0.6,0,0.9,0c0.3,0,0.6-0.1,0.9-0.3c0.3,0,0.5,0.1,0.8,0.1 c0.5,0,1-0.1,1.5-0.2c0.2,0,0.5-0.1,0.7-0.1s0.5,0,0.8,0c-0.1,0.3-0.1,0.6-0.3,0.9c-0.1,0.3-0.3,0.7-0.5,1c-0.2,0.5-0.5,1-0.7,1.6 c-0.2,0.5-0.3,1-0.3,1.6c-0.2,0.1-0.4,0.3-0.5,0.4l-0.7,0.7c-0.3,1.1-0.6,2.1-1,3.1c-0.4,1-0.8,2-1.2,3c-0.7,1.8-1.4,3.7-2,5.6 c-0.7,2.3-0.9,4.7-0.8,7.2c0.2,0.3,0.4,0.6,0.5,1c0.1,0.4,0.2,0.8,0.3,1.2c0.1,0.6,0.3,1.1,0.5,1.6c0.2,0.5,0.4,1,0.8,1.5 c0,0.2,0,0.4-0.1,0.9l0.7,0.4c0.3,0.2,0.6,0.3,1,0.4c0.1,0.1,0.2,0.1,0.3,0.2c0.1,0,0.2,0.1,0.3,0.2c0.2,0.3,0.4,0.5,0.7,0.6 c0.2,0.1,0.5,0.2,0.9,0.4c0.1,0.2,0.3,0.4,0.5,0.5l0.9,0.1c1.4,0.1,2.7-0.4,3.7-1.4c0.7-1,1-2.2,0.7-3.4l-0.6-0.7 c-0.3-0.1-0.7-0.2-0.9-0.5c-0.1-0.1-0.2-0.1-0.3-0.2c-0.1,0-0.2-0.1-0.3-0.2c-0.1-0.2-0.2-0.4-0.3-0.6L210,124 c-0.1-0.2-0.1-0.4-0.1-0.6c0-0.3,0.1-0.5,0.2-0.8c0-0.2,0.1-0.5,0.1-0.7c0-0.2,0.1-0.5,0.1-0.7c0.2-0.3,0.3-0.7,0.4-1 c0-0.2,0-0.4,0.1-0.5c0.1-0.2,0.2-0.4,0.2-0.6c0.2-0.5,0.4-1,0.5-1.5c0.1-0.2,0.3-0.3,0.3-0.5c0.1-0.3,0.3-0.5,0.5-0.7l0.2-0.9 c0.2-0.6,0.4-1.3,0.7-2.1c0.3-0.8,0.7-1.6,1.3-2.3c0.2-0.8,0.4-1.6,0.8-2.3c0.4-0.7,0.8-1.4,1.2-2.1c0.3-1,0.6-1.9,0.9-2.8 c0.3-0.8,0.7-1.7,1-2.5c0.4-0.8,0.7-1.6,1-2.4c0.3-0.8,0.7-1.7,1.1-2.8c0.7-0.1,1.5-0.2,2.4-0.3s1.8-0.2,2.8-0.3 c1.3-0.2,2.7-0.4,4.1-0.5c1.3-0.2,2.6-0.2,4-0.2h0.9c0.2,0,0.6,0,1,0.1c0.2-0.1,0.5-0.2,0.7-0.2c0.2-0.1,0.4-0.1,0.5-0.2 c0.2-0.1,0.5-0.2,0.7-0.3c0.3-0.1,0.6-0.1,0.9-0.1h0.7l0.6-0.8c0.2-0.1,0.4-0.3,0.6-0.5l0.3-0.6c0.2-1.1,0-2.3-0.6-3.2 c-0.5-0.7-1.1-1.3-1.8-1.8c-0.3-0.2-0.6-0.5-0.9-0.7c-0.2-0.2-0.4-0.5-0.6-0.8l-0.7-0.5c-0.6-0.1-1.2-0.1-1.8-0.2 c-0.6,0-1.3-0.1-1.9-0.1c-1.6,0-3.3,0.1-4.9,0.3c-1.7,0.2-3.3,0.4-4.9,0.6c-1.2,0.2-2.3,0.3-3.4,0.5c-1.1,0.1-2.2,0.3-3.2,0.3 c-0.3-0.3-0.5-0.5-0.9-0.8c-0.6-0.3-1.3-0.4-1.9-0.3l-0.7,0.4l-0.2,0.4c-0.1,0.1-0.2,0.4-0.4,0.9c-2.2,0.1-4.2,0.3-6,0.5 c-1.7,0.2-3.4,0.3-5,0.4s-3.2,0.2-4.8,0.2h-1c-0.3,0-0.7,0-1-0.1h-0.9l-0.2,1.1c-0.1,0.1-0.3,0.3-0.4,0.5c-0.2,0.3-0.3,0.6-0.3,0.9 c0,0.7,0.1,1.4,0.2,2c0.2,0.5,0.3,1.1,0.5,1.6c0.1,0.3,0.2,0.6,0.3,0.9c0.1,0.3,0.2,0.6,0.2,0.9L193.8,96.5L193.8,96.5z  M259.6,122.7c0.1-0.5,0.1-0.9-0.1-1.4c0.3-0.3,0.5-0.6,0.7-1c0.2-0.4,0.4-0.8,0.5-1.2c0.2-0.4,0.3-0.8,0.5-1.2 c0.2-0.4,0.4-0.8,0.7-1.1c0.1-1.6,0.4-3.1,0.8-4.6c0.4-1.4,0.7-2.9,1.1-4.5c0-1.3-0.1-2.6-0.2-3.8s-0.2-2.5-0.3-3.7 c-0.6-0.5-1.1-1.1-1.5-1.7c-0.4-0.7-0.8-1.4-1.1-2.1c-0.3-0.8-0.7-1.5-1-2.3c-0.3-0.7-0.7-1.4-1.2-2.1c-0.7,0.2-1.4,0.5-1.9,1.1 c-0.5,0.6-0.9,1.2-1.2,2c-0.3,0.8-0.4,1.6-0.5,2.4c0,0.8,0,1.6,0.2,2.4c-0.3,0.1-0.5,0.2-0.6,0.5c-0.1,0.2-0.3,0.4-0.5,0.6 c0.2,1.6,0.2,3.3-0.1,4.9c-0.3,1.6-0.6,3.2-0.8,4.8c-0.9,0.5-1.8,0.8-2.8,1.1c-1,0.3-2,0.6-3.1,0.8s-2.1,0.5-3.2,0.7 c-1.1,0.2-2.1,0.4-3,0.7c0.1-0.3,0.1-0.5-0.1-0.5c-0.2,0-0.3-0.2-0.3-0.4c0.2-0.7,0.3-1.5,0.5-2.5s0.4-2,0.5-3 c0.2-1.1,0.3-2.1,0.5-3.1c0.1-1,0.2-1.9,0.2-2.7c-0.4-0.7-0.8-1.4-1.3-2.1c-0.5-0.6-0.9-1.2-1.4-1.8c-0.5-0.6-0.9-1.2-1.3-1.9 c-0.4-0.7-0.7-1.5-0.9-2.3c-1.2,0.3-2.2,1.2-2.7,2.3c-0.6,1.3-1,2.6-1.2,4c-0.2,1.5-0.4,3.1-0.5,4.8c-0.1,1.5-0.3,3-0.5,4.5 c-0.4-0.1-0.6,0-0.7,0.2c0.1,0.4,0.2,0.8,0.2,1.2c0,0.5,0,1.1-0.2,1.6c-0.1,0.6-0.3,1.1-0.5,1.6c-0.2,0.5-0.4,0.9-0.8,1.2 c-0.1,1-0.2,1.9-0.4,2.8c-0.2,1-0.6,2-1.3,2.9c0.1,0.2,0.2,0.4,0.2,0.7c0,0.2-0.1,0.4-0.2,0.6c-0.1,0.2-0.2,0.4-0.2,0.7 c-0.1,0.3-0.1,0.6,0,0.9c-0.1-0.1-0.2-0.1-0.3-0.1c-0.1,0.1-0.2,0.2-0.2,0.4c0,0.2-0.1,0.3-0.2,0.5c0,0.2-0.1,0.3-0.2,0.4 c0.3,0.5,0.5,1,0.7,1.6c0.2,0.5,0.4,1.1,0.8,1.5c-0.3-0.2-0.4-0.1-0.5,0.2c0,0.3,0,0.5,0.2,0.4c0,0.1,0.1,0.2,0.2,0.3l0.6,0.4 c0.2,0.1,0.4,0.3,0.6,0.5c0.2,0.2,0.3,0.4,0.3,0.6c1.1,0.7,2.4,0.8,3.6,0.3c0.5-0.2,1-0.4,1.4-0.7c0.5-0.3,1-0.5,1.5-0.6 c0.1-0.2,0.1-0.3,0-0.5c-0.1-0.1-0.1-0.2-0.2-0.4c0.4-0.1,0.7-0.3,0.9-0.6c0.3-0.4,0.6-0.9,0.8-1.4c0.2-0.5,0.4-1,0.6-1.5 c0.1-0.3,0.2-0.6,0.2-0.9c0.5-0.3,1.2-0.7,2-1.2c0.8-0.4,1.7-0.9,2.7-1.3c1-0.4,1.9-0.8,3-1.2c0.9-0.3,1.9-0.5,2.9-0.6 c0,0,0,0.3-0.1,0.7s-0.1,0.9-0.2,1.4s-0.2,0.9-0.2,1.3s-0.1,0.6-0.1,0.7c-0.1,0.9,0.2,1.8,0.7,2.6c0.5,0.8,1,1.6,1.5,2.6 c0.4,0.1,0.7,0.3,1.1,0.5c0.3,0.2,0.6,0.4,0.9,0.6c0.7-0.2,1.4-0.5,2.1-0.8c0.7-0.3,1.4-0.7,2-1.2c0.6-0.5,1-1.1,1.3-1.8 c0.3-0.8,0.5-1.7,0.4-2.6C259.7,123.8,259.5,123.3,259.6,122.7z M295.4,94.7c-0.6-0.5-1.2-1.1-1.6-1.7c0,0.4-0.1,0.5-0.3,0.3 s-0.4,0-0.6,0.3c-0.4,0-0.8-0.2-1-0.5c-1.7,0.3-3.2,0.6-4.6,0.7c-1.3,0.2-2.6,0.3-3.9,0.5c-1.2,0.2-2.5,0.4-3.8,0.7 c-1.3,0.3-2.7,0.7-4.4,1.2c-0.9,0.2-1.7,0.4-2.6,0.5c-0.8,0.1-1.5,0.4-2.3,0.6c-0.7,0.2-1.3,0.6-1.9,0.9c-0.6,0.4-1.1,0.9-1.5,1.5 c0.2,0.7,0.3,1.4,0.4,2c0.1,0.7,0.2,1.3,0.3,1.9c0.1,0.6,0.3,1.3,0.6,1.9c0.3,0.7,0.7,1.3,1.2,1.7c-0.3,0.8-0.6,1.5-0.9,2.1 c-0.3,0.6-0.6,1.2-0.9,1.9c-0.3,0.6-0.6,1.2-0.9,1.9c-0.3,0.6-0.5,1.3-0.8,2.1c-0.3,0-0.4,0-0.5,0.2c0,0.2-0.2,0.3-0.4,0.3 c0.1,0.6,0,1.1-0.4,1.6c-0.4,0.5-0.6,1-0.8,1.6c-0.1,0.6-0.2,1.3-0.1,1.9c0.1,0.7,0.2,1.4,0.3,2.1s0.2,1.4,0.4,2 c0.1,0.6,0.2,1.2,0.2,1.8c0.4,0.1,0.7,0.5,0.8,0.9c0.1,0.4,0.3,0.7,0.6,1c0.8,0.8,1.9,1.4,3,1.6c1.3,0.3,2.5,0.5,3.8,0.5 c1.3,0,2.6,0,4-0.2c1.3-0.2,2.4-0.3,3.4-0.5c0.3,0,0.6,0,0.9,0.2c0.3,0.1,0.6,0.1,0.9,0c1.5-0.3,2.9-0.5,4.1-0.7 c1.2-0.2,2.3-0.5,3.4-0.9c1-0.4,1.9-0.9,2.7-1.6c0.9-0.9,1.6-1.9,2.1-3.1c-0.2,0.1-0.4,0-0.5-0.2c-0.1-0.2-0.2-0.3-0.2-0.5 c0-0.2-0.1-0.4-0.2-0.6c-0.1-0.2-0.2-0.4-0.3-0.6c-0.3,0.1-0.7,0-0.9-0.2c-0.3-0.2-0.5-0.4-0.7-0.7c-0.2-0.3-0.5-0.5-0.7-0.9 c-0.2-0.3-0.5-0.5-0.9-0.6c-1,0.3-2,0.6-3.1,0.7c-1,0.1-2,0.4-2.9,0.9c-1.1,0-2.2,0-3.2,0.1c-0.9,0.1-1.7,0.2-2.5,0.3 c-0.8,0.1-1.7,0.2-2.6,0.2c-1.2,0-2.3-0.1-3.4-0.2c0.4-1.1,0.9-2.1,1.4-3.1c0.5-1,1.1-1.9,1.8-2.7c0.5,0.2,1.1,0.2,1.7,0.2 c0.6,0,1.1,0.1,1.6,0.3c0.4-0.2,0.9-0.3,1.4-0.2c0.5,0.1,0.9,0,1.4-0.2c0.1,0.1,0.3,0.2,0.4,0.2h0.5c0.9,0,1.8,0,2.6-0.3 c0.8-0.2,1.5-0.5,2.3-0.9c0.7-0.4,1.4-0.8,2-1.2c0.6-0.5,1.3-0.9,2-1.4c0.2-0.4,0.2-0.8,0.2-1.2c-0.1-0.4-0.2-0.7-0.3-1.1 c-0.4,0-0.7,0-1.1-0.2c-0.3-0.2-0.6-0.4-0.9-0.7c-0.3-0.3-0.6-0.6-0.9-0.9c-0.3-0.3-0.5-0.5-0.9-0.8c-0.1-0.1,0-0.2,0.1-0.3 c0.1-0.1,0.1-0.3,0.1-0.4c-1.7,0-3.4,0.1-5.1,0.3c-1.6,0.2-3.1,0.2-4.7,0.1c-0.1-0.3-0.2-0.6-0.2-0.9c0-0.4-0.1-0.8-0.2-1.1 c0.4-0.1,0.7-0.2,1.1-0.3c0.3-0.1,0.7-0.3,0.9-0.5c0.6,0.1,1.3,0,1.9-0.2c0.5-0.2,1-0.2,1.4,0c1.2-0.8,2.6-1.3,4.1-1.6 c1.4-0.2,2.7-0.5,4-0.7c1.3-0.2,2.5-0.6,3.6-1.1c1.2-0.6,2.3-1.6,3-2.8c-0.1-0.2-0.1-0.4-0.1-0.6c0-0.1,0-0.3,0-0.4 c0-0.1,0-0.3,0.1-0.4c0-0.2,0-0.4,0-0.6C296.8,95.6,296.1,95.2,295.4,94.7z"></path><path id="Moon" class="st5" d="M164.8,184.9c0.3-0.1,0.6-0.3,0.9-0.6c0.3-0.4,0.6-0.8,0.9-1.2c0.3-0.5,0.7-1.2,1.1-2.1 c0.1-0.3,0.2-0.6,0.2-0.9c0-0.2,0.1-0.4,0.1-0.7c0-0.3,0.1-0.5,0.2-0.8c0.2-0.3,0.3-0.5,0.5-0.8c0.2-0.2,0.4-0.4,0.6-0.6 c0.2-0.1,0.3-0.2,0.4-0.4c0.1-0.2,0.2-0.4,0.2-0.6c-0.1-0.2-0.1-0.4-0.2-0.6c0-0.2,0-0.4,0.1-0.6c0.2-0.7,0.5-1.4,1-1.9 c0.4-0.5,0.9-1,1.4-1.5c-0.1-0.7,0-1.4,0.2-2.1c0.2-0.8,0.5-1.6,0.8-2.4c0.3-0.8,0.6-1.5,0.9-2c0.3-0.6,0.5-1,0.6-1.2l0.6-1l0.5,1.1 c2.1,4.1,5.1,6.2,9.2,6.2c1.7,0,3.3-0.3,4.9-0.8c1.7-0.6,3.4-1.2,5-2.1c1.6-0.8,3.2-1.7,4.7-2.7c1.5-1,2.9-2,4.2-2.9 c0-0.2,0.2-0.4,0.4-0.5c0.2,0,0.4-0.1,0.5-0.1l0.6,0.1v0.7c0.1,0.3-0.1,0.7-0.4,0.9c-1.4,4.3-2.1,8.8-2.2,13.3c0.1,3.5,1.1,6,3,7.4 c0.5,0,1-0.1,1.4-0.3c0.5-0.2,0.9-0.4,1.3-0.7c0.3-0.2,0.7-0.4,1-0.5c0.4-0.2,0.8-0.3,1.2-0.4c0.1-0.3,0.2-0.5,0.3-0.7 c0.1-0.2,0.2-0.5,0.4-0.8c1-2.2,2-4.6,2.8-7.2c0.9-2.7,1.3-5.6,1.1-8.5c0.3-0.6,0.5-1.1,0.7-1.7c0.2-0.6,0.3-1.1,0.4-1.7 c0.1-0.7,0.1-1.3,0.1-2c0-0.7,0-1.7-0.1-2.9c0.3-0.6,0.6-1.3,0.8-2c0.2-0.8,0.3-1.5,0.2-2.3l-0.2-1.3l1.3,0.1 c-0.1-0.2-0.1-0.3-0.2-0.5c0-0.2-0.1-0.3-0.2-0.5c-0.2-0.4-0.3-0.8-0.4-1.2c-0.1-0.4-0.1-0.9-0.1-1.3c-0.9-0.6-1.5-1.5-1.8-2.6 c-0.1-0.3-0.3-0.5-0.5-0.7c-0.2-0.2-0.5-0.3-0.8-0.5c-0.1,0-0.2-0.1-0.2-0.1c-0.2-0.1-0.3-0.2-0.4-0.3c-0.3-0.3-0.5-0.8-0.5-1.2 c-0.1-0.1-0.2-0.1-0.3-0.2c-0.1,0-0.2-0.1-0.3-0.2c-0.6-0.3-1.1-0.5-1.7-0.8c-0.5-0.2-1.1-0.3-1.7-0.3c-0.5,0-1.1,0.1-1.5,0.4 c-0.7,1.9-1.9,3.6-3.3,5.1c-1.4,1.4-2.8,2.6-4.3,3.8c-0.8,0.7-1.5,1.3-2.2,1.9s-1.5,1.4-2.3,2.2c-0.4,0.1-0.8,0.2-1.1,0.4 c-0.4,0.2-0.9,0.5-1.2,0.8c-0.6,0.4-1.2,0.7-1.8,1.1c-0.7,0.4-1.4,0.6-2.2,0.5c-0.7,0-1.3-0.2-1.9-0.5l-0.4-0.5 c-0.1-0.4-0.2-0.8-0.2-1.2c0-0.4,0.1-0.7,0.1-1.1c0.1-0.3,0.1-0.7,0.1-1c0-0.3-0.1-0.6-0.3-0.8l-0.1-0.7c0.5-1.1,0.5-2.5,0-3.6 c-0.6-1.2-1.3-2.3-2-3.4c-0.2-0.2-0.3-0.4-0.5-0.7c-0.1-0.2-0.3-0.5-0.5-0.7c-0.4,0-0.8-0.1-1.2-0.3c-0.4-0.2-0.9-0.3-1.4-0.4 c-0.2,0-0.3-0.1-0.5-0.2c-0.2-0.1-0.4-0.3-0.4-0.6l-0.2-0.9c-0.3-0.3-0.6-0.6-1-0.8c-0.4-0.2-0.8-0.5-1.3-0.6 c-1.4,0.5-2.6,1.3-3.6,2.3c-0.5,0.5-0.9,1.1-1.3,1.7c-0.4,0.6-0.8,1.3-1.3,2c-0.3,0.4-0.6,0.9-0.9,1.5c-0.3,0.5-0.6,1.1-1,1.6 c-0.7,1-1.3,2.1-1.9,3.3c-0.7,1.4-1.5,3-2.2,4.7s-1.5,3.4-2.3,5.2c-0.8,1.8-1.5,3.4-2.1,4.8c-0.6,1.4-1.1,2.6-1.5,3.6 c-0.4,0.9-0.6,1.4-0.6,1.5c-0.5,1.2-0.7,2.4-0.7,3.6c0,1.4,0.1,2.7,0.4,4.1c0.2,1.3,0.6,2.6,1.2,3.8c0.4,1,1,2,1.7,2.8 c0.6,0.1,1.3,0.2,1.9,0.2C164.1,185,164.5,185,164.8,184.9z M250.4,160.9c-0.8-1.7-1.6-3.4-2.6-5c0.2-0.2,0.2-0.5,0.2-0.8 c0-0.2-0.2-0.3-0.4-0.3c-0.2,0-0.3-0.2-0.2-0.5c0.4-0.2,0.7-0.5,0.8-0.9c0.1-0.4,0.3-0.9,0.5-1.2c-0.1-0.4-0.3-0.7-0.5-1.1 c-0.2-0.3-0.4-0.7-0.4-1.1c-0.1-0.1-0.2,0-0.3,0.1s-0.2,0.1-0.3,0.1c-0.1-0.3-0.2-0.6-0.5-0.9c-0.2-0.2-0.5-0.4-0.7-0.6 c-0.2-0.2-0.5-0.4-0.7-0.6c-0.2-0.3-0.4-0.6-0.4-0.9c-0.4-0.4-1-0.7-1.6-0.8c-0.6-0.1-1.1-0.2-1.6-0.5c-0.4,0.3-0.8,0.6-1.2,0.9 c-0.3,0.4-0.6,0.8-0.9,1.3c-0.3,0.1-0.7,0.1-1,0.1c-0.3,0-0.6,0-0.9,0.1c-0.5,0.6-0.9,1.1-1.2,1.6c-0.4,0.5-1,0.9-1.6,1.1v0.7 c-0.3,0.1-0.6,0.2-0.9,0.4c-0.2,0.2-0.5,0.4-0.7,0.6c-0.2,0.2-0.5,0.4-0.7,0.5c-0.3,0.2-0.6,0.3-0.9,0.4c-0.3,0.6-0.8,1-1.3,1.3 c-0.6,0.3-1,0.8-1.2,1.4c-0.2,0-0.4,0.1-0.5,0.3c-0.1,0.2-0.3,0.3-0.4,0.5c-0.1,0.2-0.2,0.3-0.4,0.4c-0.2,0.1-0.4,0.1-0.6,0 c-1.1,1.3-2.2,2.6-3.4,4c-1.2,1.4-2.2,2.9-3.1,4.4c-0.9,1.6-1.6,3.4-2.1,5.2c-0.5,2.1-0.6,4.2-0.2,6.3c0.5,1.1,1,2.2,1.7,3.1 c0.7,1,1.5,1.8,2.5,2.6c1,0.7,2.1,1.3,3.3,1.6c1.3,0.3,2.7,0.4,4.1,0.2c1.3,0.3,2.7,0.4,4.1,0.3c1.2-0.2,2.4-0.5,3.6-0.9 c0.6,0,1.1,0,1.7-0.1c0.7-0.1,1.3-0.3,1.9-0.5c0.6-0.2,1.3-0.5,1.9-0.7c0.6-0.3,1.1-0.5,1.6-0.8c0.6-0.1,1.1-0.2,1.7-0.4 c0.5-0.1,1-0.3,1.5-0.6c0.7-0.6,1.4-1.1,2.2-1.5c0.8-0.4,1.5-1,2.1-1.7c0.5-0.3,0.9-0.7,1.2-1.1c0.3-0.5,0.6-1.1,0.8-1.7 c0.2-0.6,0.3-1.3,0.4-1.9c0.1-0.6,0.1-1.2,0-1.9c-0.1-0.5-0.2-0.9-0.4-1.3c-0.2-0.4-0.3-0.9-0.5-1.3c-0.2-0.4-0.3-0.9-0.5-1.3 c-0.1-0.5-0.2-0.9-0.1-1.4C252,164.3,251.1,162.6,250.4,160.9L250.4,160.9z M241.5,173.7c-1.4,0.7-2.9,1.3-4.4,1.6 c-0.9,0-1.8,0.1-2.7,0.3c-1,0.2-1.9,0.3-2.9,0.4c-1,0.1-1.9,0.1-2.9-0.1c-0.9-0.1-1.7-0.5-2.4-1c0-0.9,0.2-1.7,0.5-2.6 c0.3-0.7,0.7-1.4,1.2-2.1c0.4-0.7,0.9-1.3,1.4-1.9c0.5-0.6,0.9-1.4,1.2-2.1c0.1-0.1,0.2-0.1,0.4-0.1c0.1,0,0.2,0,0.3-0.1 c0.9-1.2,2-2.2,3.2-3.1c1.2-0.9,2.4-1.8,3.5-2.7c0.2,0.2,0.4,0.3,0.7,0.4c0.2,0.1,0.5,0.2,0.8,0.2c0.2,0,0.5,0,0.7-0.2 c0.2-0.2,0.4-0.4,0.4-0.7c0.1,0.2,0.4,0.3,0.6,0.1c0,0,0,0,0,0c0.2-0.1,0.3-0.3,0.4-0.5c0.8,1.3,1.6,2.6,2.2,4.1 c0.6,1.4,1.4,2.8,2.3,4.1c0,0.3,0,0.6,0.1,0.9c0.1,0.3,0.2,0.5,0.4,0.8c0,0.5-0.2,0.9-0.5,1.3c-0.3,0.3-0.5,0.7-0.6,1.1 C244,172.4,242.8,173.1,241.5,173.7L241.5,173.7z M288,160.9c-0.8-1.7-1.6-3.4-2.6-5c0.2-0.2,0.2-0.5,0.2-0.8c0-0.2-0.2-0.3-0.4-0.3 c-0.2,0-0.3-0.2-0.2-0.5c0.4-0.2,0.7-0.5,0.8-0.9c0.1-0.4,0.3-0.9,0.5-1.2c-0.1-0.4-0.3-0.7-0.5-1.1c-0.2-0.3-0.4-0.7-0.4-1.1 c-0.1-0.1-0.2,0-0.3,0.1s-0.2,0.1-0.3,0.1c-0.1-0.3-0.2-0.6-0.5-0.9c-0.2-0.2-0.5-0.4-0.7-0.6c-0.2-0.2-0.5-0.4-0.7-0.6 c-0.2-0.3-0.4-0.6-0.4-0.9c-0.4-0.4-1-0.7-1.6-0.8c-0.6-0.1-1.1-0.2-1.6-0.5c-0.4,0.3-0.8,0.6-1.2,0.9c-0.3,0.4-0.6,0.8-0.9,1.3 c-0.3,0.1-0.7,0.1-1,0.1c-0.3,0-0.6,0-0.9,0.1c-0.5,0.6-0.9,1.1-1.2,1.6c-0.4,0.5-1,0.9-1.6,1.1v0.7c-0.3,0.1-0.6,0.2-0.9,0.4 c-0.2,0.2-0.5,0.4-0.7,0.6c-0.2,0.2-0.5,0.4-0.7,0.5c-0.3,0.2-0.6,0.3-0.9,0.4c-0.3,0.5-0.8,1-1.3,1.3c-0.6,0.3-1,0.8-1.3,1.4 c-0.2,0-0.4,0.1-0.5,0.3c-0.1,0.2-0.3,0.3-0.4,0.5c-0.1,0.2-0.2,0.3-0.4,0.4c-0.2,0.1-0.4,0.1-0.6,0c-1.1,1.3-2.2,2.6-3.4,4 c-1.2,1.4-2.2,2.9-3.1,4.4c-0.9,1.6-1.6,3.4-2.1,5.2c-0.5,2.1-0.6,4.2-0.2,6.3c0.5,1.1,1,2.2,1.7,3.1c0.7,1,1.5,1.8,2.5,2.6 c1,0.7,2.1,1.3,3.3,1.6c1.3,0.3,2.7,0.4,4.1,0.2c1.3,0.3,2.7,0.4,4.1,0.3c1.2-0.2,2.4-0.5,3.6-0.9c0.6,0,1.1,0,1.7-0.1 c0.7-0.1,1.3-0.3,2-0.5c0.6-0.2,1.3-0.5,1.9-0.7c0.6-0.3,1.1-0.5,1.6-0.8c0.6-0.1,1.1-0.2,1.7-0.4c0.5-0.1,1-0.3,1.5-0.6 c0.7-0.6,1.5-1.1,2.3-1.5c0.8-0.4,1.5-1,2.1-1.7c0.5-0.3,0.9-0.7,1.2-1.1c0.3-0.5,0.6-1.1,0.8-1.7c0.2-0.6,0.3-1.3,0.4-1.9 c0.1-0.6,0.1-1.2,0-1.9c-0.1-0.5-0.2-0.9-0.4-1.3c-0.2-0.4-0.3-0.9-0.5-1.3c-0.2-0.4-0.3-0.9-0.5-1.3c-0.1-0.5-0.2-0.9-0.1-1.4 C289.7,164.3,288.8,162.6,288,160.9L288,160.9z M279.2,173.7c-1.4,0.7-2.9,1.3-4.4,1.6c-0.9,0-1.8,0.1-2.6,0.3 c-1,0.2-1.9,0.3-2.9,0.4c-1,0.1-1.9,0.1-2.9-0.1c-0.9-0.1-1.7-0.5-2.4-1c0-0.9,0.2-1.7,0.5-2.6c0.3-0.7,0.7-1.4,1.2-2.1 c0.4-0.7,0.9-1.3,1.4-1.9c0.5-0.7,0.9-1.4,1.2-2.1c0.1-0.1,0.2-0.1,0.4-0.1c0.1,0,0.2,0,0.3-0.1c0.9-1.2,2-2.2,3.2-3.1 c1.2-0.9,2.4-1.8,3.5-2.7c0.2,0.2,0.4,0.3,0.7,0.4c0.2,0.1,0.5,0.2,0.8,0.2c0.2,0,0.5,0,0.7-0.2c0.2-0.2,0.4-0.4,0.4-0.7 c0.1,0.2,0.4,0.3,0.6,0.1c0,0,0,0,0,0c0.2-0.1,0.3-0.3,0.4-0.5c0.8,1.3,1.6,2.6,2.2,4.1c0.6,1.4,1.4,2.8,2.3,4.1 c0,0.3,0,0.6,0.1,0.9c0.1,0.3,0.2,0.5,0.4,0.8c0,0.5-0.2,0.9-0.5,1.3c-0.3,0.3-0.5,0.7-0.6,1.1C281.7,172.4,280.4,173.1,279.2,173.7 L279.2,173.7z M308.5,178.8c1.3,1.6,2.8,3,4.4,4.2c0.9,0.4,1.8,0.5,2.8,0.4c0.7-0.1,1.3-0.4,1.8-0.7c0.5-0.4,1-0.8,1.4-1.2 c0.4-0.4,1-0.8,1.5-1c-0.1-0.2-0.1-0.3-0.1-0.5c0-0.1,0.1-0.2,0.1-0.3c0.1-0.1,0.1-0.1,0.2-0.2c0-0.1,0-0.2,0-0.4 c0.2,0,0.3,0.1,0.4,0.2c0,0.1,0.1,0,0.3-0.1c0.4-0.7,0.8-1.5,1.2-2.2c0.4-0.7,0.9-1.4,1.5-1.9c0.2-0.9,0.5-1.8,0.9-2.9s0.7-2.1,1-3 c0-1,0-2,0.1-3c0.1-0.9,0.3-1.8,0.5-2.7c0.2-0.9,0.4-1.7,0.5-2.6c0.2-0.9,0.3-1.8,0.5-2.9c0.3-0.2,0.6-0.5,0.9-0.9 c0.2-0.4,0.4-0.7,0.5-1.1c0.1-0.4,0.2-0.8,0.3-1.2c0.1-0.4,0.2-0.8,0.5-1.1c-0.1-0.7-0.4-1.4-0.8-2.1c-0.4-0.6-0.9-1.3-1.3-2 c-0.5-0.1-1.1-0.3-1.5-0.6c-0.4-0.3-0.8-0.6-1.2-1c-0.4-0.4-0.8-0.7-1.2-1c-0.5-0.3-1-0.5-1.6-0.6c-0.3,0.5-0.5,1.1-0.6,1.6 c-0.2,0.6-0.3,1.2-0.5,1.8c-0.2,0.6-0.3,1.1-0.5,1.7c-0.2,0.5-0.5,1-0.9,1.3c-0.3,2-0.6,3.9-0.9,5.8c-0.3,1.8-0.7,3.6-1.2,5.4 c-0.5,1.6-1.2,3.1-2.1,4.5c-0.9,1.4-2.1,2.5-3.5,3.3c-0.2-1-0.4-2-0.4-3.1c0-1-0.1-1.9,0-2.9c0-0.9,0.1-1.8,0.1-2.7 c0-0.9,0-1.8-0.1-2.7c0.1,0,0.2,0,0.3,0c0.1-0.1,0.1-0.1,0.2-0.2c0-0.1,0.1-0.1,0.2-0.2c0.1-0.1,0.2-0.1,0.3-0.1 c-0.1-0.3-0.1-0.7-0.1-1c0.1-0.3,0.2-0.5,0.3-0.7c0.1-0.2,0.2-0.5,0.3-0.8c0.1-0.4,0-0.8-0.2-1.1c0.1,0.1,0.3,0.1,0.4,0 c0.1-0.1,0.2-0.1,0.3-0.1c-0.2-0.3-0.2-0.6-0.2-0.9c0-0.1,0-0.2,0-0.2c-0.1-0.2-0.2-0.3-0.3-0.4c0-0.1,0.1-0.1,0.2-0.1c0,0,0,0,0,0 c0.1,0.1,0.2,0,0.3-0.3c-0.2-0.9-0.5-1.9-1-2.7c-0.5-0.8-1.2-1.5-1.9-2.1c-0.8-0.6-1.6-1.2-2.5-1.6c-0.9-0.5-1.8-0.9-2.8-1.3 c-2.1,4.7-4.3,9.4-6.7,14.2s-4.5,9.3-6.5,13.5c0.2,0.3,0.4,0.7,0.4,1.1c0.1,0.4,0.1,0.9-0.1,1.3c0.3,0.6,0.6,1.2,0.9,2 s0.6,1.5,1,2.3c0.4,0.7,0.8,1.4,1.3,2c0.5,0.6,1.2,1,1.9,1.3c0.3,0,0.6-0.1,0.8-0.3c0.3-0.2,0.7-0.2,1-0.1c0-0.2-0.1-0.3-0.2-0.4 c-0.1,0-0.1-0.1,0.1-0.3c0.5,0.1,1,0,1.3-0.4c0.3-0.3,0.4-0.7,0.5-1c0.1-0.4,0.2-0.8,0.3-1.3c0.1-0.4,0.3-0.8,0.6-1 c-0.2-0.3-0.2-0.7-0.1-1.1c0.1-0.3,0.2-0.6,0.4-0.9c0.2-0.3,0.3-0.5,0.5-0.8c0.2-0.2,0.3-0.5,0.3-0.9c0.3,0,0.5-0.2,0.6-0.5 c0.1-0.3,0.3-0.6,0.4-1s0.3-0.7,0.5-1.1c0.1-0.3,0.4-0.6,0.8-0.6C306,175.1,307.1,177.1,308.5,178.8L308.5,178.8z"></path></svg>