<?xml version="1.0" encoding="utf-8"?>
<!-- Generator: Adobe Illustrator 24.1.2, SVG Export Plug-In . SVG Version: 6.00 Build 0)  -->
<svg version="1.1" id="Слой_1" xmlns="http://www.w3.org/2000/svg" xmlns:xlink="http://www.w3.org/1999/xlink" x="0px" y="0px"
	 viewBox="0 0 106 106" style="enable-background:new 0 0 106 106;" xml:space="preserve">
<style type="text/css">
	.st0{fill-rule:evenodd;clip-rule:evenodd;fill:#31215B;}
	.st1{fill-rule:evenodd;clip-rule:evenodd;fill:#0071C8;}
	.st2{fill-rule:evenodd;clip-rule:evenodd;fill:#6E00D6;}
	.st3{fill-rule:evenodd;clip-rule:evenodd;fill:#180F2D;}
	.st4{fill-rule:evenodd;clip-rule:evenodd;fill:#A1005F;}
	.st5{fill-rule:evenodd;clip-rule:evenodd;fill:#FFFFFF;}
</style>
<path id="Фигура_544_копия_2" class="st0" d="M51.5,15.3c0,0,20.1,2.5,23,7.1c0.9,3.6,2.7,3.5,2.7,3.5L88,40
	c0,0,3.7,16.2,2.2,21.3S76.4,84.1,74,84.3s-1,0.9-1.8,0s-11.7,9.2-29.7,4.4c-3.9-1.2-17.8-13.2-17.8-13.2s-7.2-9.4-7.4-20.3
	c-0.1-2.6-0.7-4.1,0.8-4.6s1.5-12.1,5.7-20.2C23.9,30,36.8,16.6,51.5,15.3z"/>
<path id="_1" class="st1" d="M91,52c0,0-2.5-10.4-3-13c0,0.2-8-10.7-12-15c-1.1-0.5-2-3-2-3s-8.9-6-23-6S23,30,23,30s-2.1,5.1-5,20
	c-0.1-0.1,3.6-12.8,7-19c0,0.1,10.8-14,26-14c7.6,0.1,15.1,1.8,22,5l1,4l12,13C86,39,89.9,47.9,91,52z"/>
<path id="_2" class="st2" d="M90,62c-4.3,7.7-9.7,14.8-16,21c0,0.1-4,1-4,1s-5.1,5-19,5c-8.5,0-11.8-2.1-20-9c-6.6-5.8-7-7-7-7
	s-5.3-6.4-7-19c0.4,7.7,2.5,15.2,6,22c2.4,2.9,5.1,5.6,8,8c0,0,8.6,8,20,8c6.7,0.1,13.2-1.7,19-5l5-1C75,86,85.2,75.3,90,62z"/>
<path id="_2_копия_2" class="st3" d="M91,54.5c-4.4,6.4-9.8,11.2-16,16c0,0.1-4,0.8-4,0.8s-5.1,4.1-19,4.1
	c-8.5,0-11.8-1.7-20-7.3c-6.6-4.7-7-5.7-7-5.7s-5.3-3.2-7-13.4c0.5,6.1,2.6,9.9,6,15c2.5,2.4,5.2,4.6,8,6.5c5.9,4.1,12.8,6.3,20,6.5
	c6.6,0.1,13.1-1.3,19-4.1l5-0.8C76,72.1,86.2,65.3,91,54.5z"/>
<path id="_2_копия" class="st4" d="M91,55c-4.3,7.7-9.7,14.8-16,21c0,0.1-4,0-4,0s-5.1,5-19,5c-8.5,0-11.8-2.1-20-9
	c-6.6-5.8-7-6-7-6s-5.3-5.4-7-18c0.5,7.3,2.5,13.5,6,20c2.4,2.9,5.1,5.6,8,8c0,0,8.6,8,20,8c6.7,0.1,13.2-1.7,19-5l5-1
	C76,78,86.2,68.3,91,55z"/>
<path id="Фигура_557" class="st5" d="M57,41c0,0-6.5,7.8-13,11c-0.1,0.3-0.1,0.7,0,1c0,0,9.2,6.3,12,10c-0.2-0.3,3-2,3-2
	l-11-8c0,0,8.2-6.8,13-9C61,44.2,57,41,57,41z"/>
</svg>
