<?xml version="1.0" encoding="utf-8"?>
<!-- Generator: Adobe Illustrator 24.1.2, SVG Export Plug-In . SVG Version: 6.00 Build 0)  -->
<svg version="1.1" id="Слой_1" xmlns="http://www.w3.org/2000/svg" xmlns:xlink="http://www.w3.org/1999/xlink" x="0px" y="0px"
	 viewBox="0 0 106 106" style="enable-background:new 0 0 106 106;" xml:space="preserve">
<style type="text/css">
	.st0{fill-rule:evenodd;clip-rule:evenodd;fill:#31215B;}
	.st1{fill-rule:evenodd;clip-rule:evenodd;fill:#0071C8;}
	.st2{fill-rule:evenodd;clip-rule:evenodd;fill:#6E00D6;}
	.st3{fill-rule:evenodd;clip-rule:evenodd;fill:#180F2D;}
	.st4{fill-rule:evenodd;clip-rule:evenodd;fill:#A1005F;}
	.st5{fill-rule:evenodd;clip-rule:evenodd;fill:#FFFFFF;}
</style>
<path id="Фигура_544_копия_2" class="st0" d="M84.3,30.3c4.2,8.1,4.2,19.6,5.7,20.2s0.9,2,0.8,4.6
	c-0.3,10.9-7.4,20.3-7.4,20.3s-13.9,12-17.8,13.2c-18,4.8-29-5.3-29.7-4.4s0.7,0.2-1.8,0S19.3,66.5,17.8,61.3S20,40,20,40l10.8-14.1
	c0,0,1.8,0.1,2.7-3.5c2.9-4.6,23-7.1,23-7.1C71.2,16.6,84.1,30,84.3,30.3z"/>
<path id="_1" class="st1" d="M22,39l12-13l1-4c6.9-3.2,14.4-4.9,22-5c15.2,0,26,14.1,26,14c3.4,6.2,7.1,18.9,7,19
	c-2.9-14.9-5-20-5-20S71.1,15,57,15s-23,6-23,6s-0.9,2.5-2,3c-4,4.3-12,15.2-12,15c-0.5,2.6-3,13-3,13C18.1,47.9,22,39,22,39z"/>
<path id="_2" class="st2" d="M33,86l5,1c5.8,3.3,12.3,5.1,19,5c11.4,0,20-8,20-8c2.9-2.4,5.6-5.1,8-8c3.5-6.8,5.6-14.3,6-22
	c-1.7,12.6-7,19-7,19s-0.4,1.2-7,7c-8.2,6.9-11.5,9-20,9c-13.9,0-19-5-19-5s-4-0.9-4-1c-6.3-6.2-11.7-13.3-16-21
	C22.8,75.3,33,86,33,86z"/>
<path id="_2_копия_2" class="st3" d="M32,72.1l5,0.8c5.9,2.8,12.4,4.1,19,4.1c7.2-0.1,14.1-2.4,20-6.5c2.8-1.9,5.5-4.1,8-6.5
	c3.4-5.1,5.5-8.9,6-15c-1.7,10.2-7,13.4-7,13.4s-0.4,1-7,5.7c-8.2,5.6-11.5,7.3-20,7.3c-13.9,0-19-4.1-19-4.1s-4-0.7-4-0.8
	c-6.2-4.8-11.6-9.6-16-16C21.8,65.3,32,72.1,32,72.1z"/>
<path id="_2_копия" class="st4" d="M32,78l5,1c5.8,3.3,12.3,5.1,19,5c11.4,0,20-8,20-8c2.9-2.4,5.6-5.1,8-8
	c3.5-6.5,5.5-12.7,6-20c-1.7,12.6-7,18-7,18s-0.4,0.2-7,6c-8.2,6.9-11.5,9-20,9c-13.9,0-19-5-19-5s-4,0.1-4,0
	c-6.3-6.2-11.7-13.3-16-21C21.8,68.3,32,78,32,78z"/>
<path id="Фигура_557" class="st5" d="M47,44c4.8,2.2,13,9,13,9l-11,8c0,0,3.2,1.7,3,2c2.8-3.7,12-10,12-10
	c0.1-0.3,0.1-0.7,0-1c-6.5-3.2-13-11-13-11S47,44.2,47,44z"/>
</svg>
